<svg xmlns="http://www.w3.org/2000/svg" xmlns:xlink="http://www.w3.org/1999/xlink" version="1.1" x="0px" y="0px" viewBox="0 0 128 160" enable-background="new 0 0 128 128" xml:space="preserve"><path d="M127.891,123.228l-35.104-33.56c8.525-9.438,13.75-21.898,13.75-35.579c0-29.343-23.871-53.214-53.211-53.214  c-29.342,0-53.217,23.864-53.217,53.214c0,29.349,23.875,53.22,53.224,53.22c13.729,0,26.218-5.271,35.662-13.828l35.183,33.645  L127.891,123.228z M53.333,101.933c-26.375,0-47.837-21.466-47.837-47.844c0-26.375,21.456-47.831,47.837-47.831  c26.375,0,47.827,21.456,47.827,47.831C101.16,80.467,79.701,101.933,53.333,101.933z"/><text x="0" y="143" fill="#000000" font-size="5px" font-weight="bold" font-family="'Helvetica Neue', Helvetica, Arial-Unicode, Arial, Sans-serif">Created by Jack NUMBER</text><text x="0" y="148" fill="#000000" font-size="5px" font-weight="bold" font-family="'Helvetica Neue', Helvetica, Arial-Unicode, Arial, Sans-serif">from the Noun Project</text></svg>