<svg xmlns="http://www.w3.org/2000/svg" xmlns:xlink="http://www.w3.org/1999/xlink" version="1.1" x="0px" y="0px" viewBox="0 0 100 125" enable-background="new 0 0 100 100" xml:space="preserve"><g display="none"><g display="inline"><path d="M0.065,47.439C0.08,47.147,0.11,46.86,0.13,46.57C0.11,46.86,0.08,47.147,0.065,47.439z"/><path d="M49.221,99.981c-13.223-0.204-25.196-5.534-34.024-14.099C24.025,94.447,35.998,99.778,49.221,99.981z"/><path d="M1.352,61.532c-0.125-0.526-0.251-1.052-0.359-1.584C1.1,60.48,1.227,61.005,1.352,61.532z"/><path d="M14.118,84.803c-1.635-1.685-3.152-3.484-4.539-5.385C10.966,81.32,12.483,83.118,14.118,84.803z"/><path d="M93.067,24.607c0.38,0.642,0.747,1.292,1.099,1.952C93.814,25.899,93.447,25.249,93.067,24.607z"/><path d="M82.092,88.333c-0.593,0.497-1.198,0.979-1.814,1.449C80.894,89.313,81.499,88.831,82.092,88.333z"/><path d="M91.791,22.561c0.421,0.638,0.827,1.286,1.218,1.944C92.618,23.847,92.211,23.199,91.791,22.561z"/><path d="M80.239,89.813c-8.205,6.237-18.397,9.998-29.46,10.168C61.844,99.811,72.034,96.054,80.239,89.813z"/><path d="M97.774,64.791c-0.141,0.454-0.299,0.899-0.452,1.348C97.476,65.69,97.634,65.245,97.774,64.791z"/><path d="M9.576,79.414c-0.46-0.632-0.906-1.273-1.337-1.927C8.669,78.14,9.115,78.782,9.576,79.414z"/><path d="M88.99,18.715c0.49,0.61,0.967,1.231,1.428,1.864C89.957,19.946,89.48,19.326,88.99,18.715z"/><path d="M2.781,66.445c-0.207-0.594-0.41-1.188-0.595-1.791C2.372,65.256,2.575,65.851,2.781,66.445z"/><path d="M96.997,67.099c-0.171,0.471-0.36,0.934-0.546,1.398C96.637,68.033,96.826,67.57,96.997,67.099z"/><path d="M96.114,69.353c-0.204,0.483-0.425,0.958-0.643,1.435C95.689,70.311,95.91,69.836,96.114,69.353z"/><path d="M90.432,20.599c0.457,0.626,0.899,1.264,1.328,1.913C91.332,21.863,90.889,21.226,90.432,20.599z"/><path d="M2.009,64.026c-0.165-0.563-0.329-1.129-0.474-1.701C1.68,62.897,1.844,63.461,2.009,64.026z"/><path d="M0.818,58.969c-0.087-0.481-0.18-0.961-0.253-1.446C0.638,58.008,0.73,58.488,0.818,58.969z"/><path d="M92.853,75.768c-0.312,0.518-0.64,1.024-0.971,1.53C92.213,76.792,92.541,76.286,92.853,75.768z"/><path d="M91.572,77.782c-0.351,0.523-0.717,1.035-1.086,1.545C90.855,78.817,91.222,78.305,91.572,77.782z"/><path d="M95.126,71.552c-0.238,0.497-0.493,0.984-0.746,1.472C94.633,72.537,94.888,72.049,95.126,71.552z"/><path d="M96.338,31.215c0.248,0.613,0.49,1.229,0.716,1.853C96.829,32.443,96.586,31.828,96.338,31.215z"/><path d="M99.182,41.032c0.088,0.481,0.181,0.96,0.254,1.446C99.362,41.992,99.27,41.513,99.182,41.032z"/><path d="M97.222,33.566c0.206,0.589,0.407,1.181,0.591,1.78C97.629,34.747,97.428,34.156,97.222,33.566z"/><path d="M97.994,35.986c0.164,0.561,0.326,1.121,0.471,1.689C98.321,37.107,98.158,36.546,97.994,35.986z"/><path d="M90.202,79.726c-0.391,0.527-0.797,1.043-1.207,1.554C89.405,80.768,89.812,80.253,90.202,79.726z"/><path d="M88.743,81.6c-0.431,0.527-0.876,1.042-1.327,1.551C87.867,82.642,88.312,82.127,88.743,81.6z"/><path d="M94.255,26.733c0.337,0.639,0.662,1.284,0.972,1.938C94.918,28.017,94.592,27.372,94.255,26.733z"/><path d="M0.137,53.518c-0.022-0.324-0.056-0.645-0.072-0.971C0.081,52.874,0.114,53.194,0.137,53.518z"/><path d="M0.412,56.32c-0.053-0.421-0.115-0.84-0.158-1.264C0.296,55.48,0.358,55.899,0.412,56.32z"/><path d="M83.872,86.769c-0.554,0.511-1.12,1.007-1.696,1.492C82.752,87.776,83.318,87.28,83.872,86.769z"/><path d="M95.347,28.938c0.293,0.628,0.577,1.262,0.844,1.905C95.924,30.2,95.64,29.566,95.347,28.938z"/><path d="M94.038,73.691c-0.275,0.511-0.567,1.012-0.86,1.511C93.471,74.703,93.763,74.202,94.038,73.691z"/><path d="M99.863,46.482c0.022,0.324,0.056,0.646,0.072,0.971C99.919,47.128,99.886,46.807,99.863,46.482z"/><path d="M99.589,43.681c0.053,0.421,0.114,0.84,0.157,1.264C99.703,44.521,99.642,44.103,99.589,43.681z"/><path d="M3.003,32.901c0.168-0.463,0.355-0.917,0.537-1.374C3.358,31.983,3.171,32.438,3.003,32.901z"/><path d="M2.226,35.209c0.138-0.447,0.294-0.886,0.445-1.328C2.521,34.324,2.364,34.762,2.226,35.209z"/><path d="M6.938,75.404c-0.382-0.646-0.751-1.3-1.105-1.964C6.187,74.104,6.556,74.758,6.938,75.404z"/><path d="M83.996,86.652c0.275-0.256,0.546-0.517,0.816-0.778l-0.006-0.006C84.537,86.129,84.271,86.396,83.996,86.652z"/><path d="M98.65,38.478c0.124,0.523,0.25,1.046,0.356,1.575C98.9,39.524,98.774,39.001,98.65,38.478z"/><path d="M3.887,30.646c0.201-0.478,0.419-0.946,0.634-1.416C4.306,29.7,4.087,30.168,3.887,30.646z"/><path d="M4.875,28.447c0.236-0.494,0.49-0.978,0.742-1.462C5.364,27.47,5.111,27.954,4.875,28.447z"/><path d="M99.429,57.579c-0.061,0.395-0.139,0.782-0.208,1.174C99.29,58.361,99.368,57.973,99.429,57.579z"/><path d="M0.256,44.912c0.036-0.352,0.089-0.698,0.132-1.048C0.346,44.213,0.292,44.56,0.256,44.912z"/><path d="M99.743,55.089c-0.035,0.356-0.09,0.707-0.133,1.062C99.653,55.796,99.707,55.446,99.743,55.089z"/><path d="M98.993,60.027c-0.084,0.414-0.188,0.821-0.281,1.23C98.806,60.848,98.909,60.441,98.993,60.027z"/><path d="M0.571,42.422c0.06-0.39,0.137-0.773,0.206-1.16C0.708,41.649,0.631,42.032,0.571,42.422z"/><path d="M99.936,52.561c-0.016,0.295-0.047,0.586-0.066,0.879C99.889,53.147,99.92,52.856,99.936,52.561z"/><path d="M1.56,37.568c0.11-0.432,0.239-0.856,0.361-1.283C1.799,36.712,1.67,37.136,1.56,37.568z"/><path d="M1.007,39.973c0.084-0.413,0.187-0.818,0.281-1.227C1.193,39.155,1.091,39.561,1.007,39.973z"/><path d="M85.873,84.813c0.449-0.464,0.895-0.932,1.327-1.412C86.768,83.881,86.322,84.348,85.873,84.813L85.873,84.813z"/><path d="M4.658,71.075c-0.295-0.633-0.581-1.271-0.849-1.917C4.078,69.804,4.363,70.442,4.658,71.075z"/><path d="M98.44,62.433c-0.111,0.436-0.241,0.862-0.364,1.293C98.199,63.295,98.329,62.869,98.44,62.433z"/><path d="M3.666,68.793c-0.25-0.615-0.493-1.234-0.719-1.861C3.172,67.56,3.416,68.178,3.666,68.793z"/><path d="M5.751,73.279c-0.339-0.643-0.667-1.293-0.979-1.952C5.083,71.986,5.412,72.636,5.751,73.279z"/><path d="M16.003,13.35c-0.275,0.256-0.546,0.516-0.815,0.777l0.006,0.006C15.463,13.872,15.728,13.605,16.003,13.35z"/><path d="M49.25,0.02c-11.076,0.164-21.279,3.922-29.491,10.17C27.971,3.945,38.175,0.183,49.25,0.02L49.25,0.02z"/><path d="M5.962,26.309c0.272-0.504,0.56-0.998,0.848-1.491C6.522,25.312,6.234,25.805,5.962,26.309z"/><path d="M8.216,77.452c-0.423-0.643-0.833-1.295-1.227-1.958C7.383,76.157,7.792,76.809,8.216,77.452z"/><path d="M14.127,15.188c-0.45,0.464-0.895,0.932-1.327,1.412C13.232,16.12,13.678,15.652,14.127,15.188L14.127,15.188z"/><path d="M85.893,15.208c0.538,0.556,1.064,1.123,1.577,1.703C86.957,16.332,86.431,15.764,85.893,15.208z"/><path d="M9.799,20.274c0.39-0.525,0.793-1.039,1.203-1.549C10.592,19.235,10.188,19.748,9.799,20.274z"/><path d="M87.478,16.92c0.517,0.585,1.021,1.183,1.511,1.792C88.498,18.103,87.994,17.506,87.478,16.92z"/><path d="M11.257,18.4c0.431-0.527,0.875-1.042,1.327-1.551C12.132,17.359,11.688,17.873,11.257,18.4z"/><path d="M7.148,24.23c0.31-0.513,0.634-1.015,0.961-1.516C7.783,23.216,7.458,23.717,7.148,24.23z"/><path d="M8.428,22.219c0.348-0.521,0.712-1.03,1.08-1.536C9.141,21.189,8.776,21.698,8.428,22.219z"/><path d="M16.128,13.231c0.557-0.513,1.127-1.013,1.707-1.5C17.255,12.218,16.685,12.718,16.128,13.231z"/><path d="M17.906,11.668c0.597-0.5,1.206-0.986,1.826-1.458C19.112,10.683,18.503,11.168,17.906,11.668z"/><path fill="#000000" d="M14.253,15.056c-0.042,0.043-0.084,0.089-0.126,0.132l0.001,0.001    C14.17,15.145,14.211,15.099,14.253,15.056z"/><path fill="#000000" d="M85.747,84.945c0.042-0.044,0.083-0.089,0.126-0.132l-0.001-0.001    C85.83,84.856,85.789,84.901,85.747,84.945z"/><path d="M50.75,96.982v2c12.963-0.195,24.695-5.431,33.351-13.82l-1.415-1.415C74.393,91.776,63.159,96.787,50.75,96.982z"/><path d="M83.75,82.69l1.416,1.416c8.396-8.652,13.62-20.391,13.815-33.355h-2C96.786,63.163,91.786,74.401,83.75,82.69z"/><path d="M83.752,17.31c8.033,8.292,13.034,19.531,13.229,31.941h2c-0.195-12.964-5.42-24.702-13.814-33.356L83.752,17.31z"/><path d="M16.25,17.311l-1.416-1.416C6.437,24.546,1.214,36.285,1.019,49.25h2C3.214,36.838,8.214,25.6,16.25,17.311z"/><path d="M3.019,50.75h-2c0.196,12.963,5.42,24.701,13.815,33.355l1.415-1.414C8.215,74.399,3.214,63.162,3.019,50.75z"/><path d="M49.25,3.02v-2c-12.963,0.195-24.696,5.43-33.351,13.82l1.415,1.415C25.607,8.225,36.84,3.214,49.25,3.02z"/><path d="M17.309,83.752l-1.415,1.414c8.654,8.396,20.392,13.62,33.356,13.815v-2C36.839,96.787,25.602,91.786,17.309,83.752z"/><path d="M4.019,50.75c0.195,12.135,5.084,23.123,12.937,31.233L48.189,50.75H4.019z M13,58c-1.105,0-2-0.895-2-2s0.895-2,2-2    s2,0.895,2,2S14.105,58,13,58z M20,65c-1.105,0-2-0.895-2-2s0.895-2,2-2s2,0.895,2,2S21.105,65,20,65z M29,58    c-1.105,0-2-0.895-2-2s0.895-2,2-2s2,0.895,2,2S30.105,58,29,58z"/><path d="M16.957,18.018C9.102,26.126,4.214,37.115,4.019,49.25h44.171L16.957,18.018z M13,41c-1.105,0-2-0.895-2-2s0.895-2,2-2    s2,0.895,2,2S14.105,41,13,41z"/><path d="M49.25,48.19V4.02C37.117,4.214,26.133,9.113,18.021,16.961L49.25,48.19z M41,24c1.105,0,2,0.895,2,2s-0.895,2-2,2    s-2-0.895-2-2S39.895,24,41,24z M32,13c1.105,0,2,0.895,2,2s-0.895,2-2,2s-2-0.895-2-2S30.895,13,32,13z"/><path d="M83.043,81.983c7.855-8.108,12.743-19.097,12.938-31.232H51.811L83.043,81.983z M84,64c1.105,0,2,0.895,2,2s-0.895,2-2,2    s-2-0.895-2-2S82.895,64,84,64z M79,55c1.105,0,2,0.895,2,2s-0.895,2-2,2s-2-0.895-2-2S77.895,55,79,55z M69,60    c1.105,0,2,0.895,2,2s-0.895,2-2,2s-2-0.895-2-2S67.895,60,69,60z"/><path d="M50.75,95.982c12.133-0.194,23.117-5.094,31.229-12.942L50.75,51.811V95.982z M63,81c1.105,0,2,0.895,2,2s-0.895,2-2,2    s-2-0.895-2-2S61.895,81,63,81z M56,68c1.105,0,2,0.895,2,2s-0.895,2-2,2s-2-0.895-2-2S54.895,68,56,68z"/><path d="M83.044,18.017L51.811,49.25h44.171C95.786,37.116,90.896,26.128,83.044,18.017z M76,42c-1.105,0-2-0.895-2-2s0.895-2,2-2    s2,0.895,2,2S77.105,42,76,42z M84,33c-1.105,0-2-0.895-2-2s0.895-2,2-2s2,0.895,2,2S85.105,33,84,33z"/><path d="M18.016,83.044c8.111,7.853,19.1,12.742,31.234,12.938V51.811L18.016,83.044z M30,82c-1.105,0-2-0.895-2-2s0.895-2,2-2    s2,0.895,2,2S31.105,82,30,82z M42,91c-1.105,0-2-0.895-2-2s0.895-2,2-2s2,0.895,2,2S43.105,91,42,91z"/><path fill="#000000" d="M88.988,18.713c0.001,0.001,0.002,0.002,0.002,0.002C88.99,18.715,88.989,18.714,88.988,18.713z"/><path fill="#000000" d="M91.76,22.511c0.011,0.017,0.021,0.033,0.031,0.05C91.78,22.544,91.771,22.528,91.76,22.511z"/><path fill="#000000" d="M87.47,16.911c0.002,0.003,0.005,0.006,0.008,0.009C87.475,16.917,87.472,16.915,87.47,16.911z"/><path fill="#000000" d="M90.418,20.579c0.005,0.006,0.009,0.013,0.014,0.02C90.427,20.592,90.423,20.585,90.418,20.579z"/><path fill="#000000" d="M99.746,44.945c0.051,0.509,0.081,1.024,0.117,1.538C99.827,45.969,99.797,45.454,99.746,44.945z"/><path fill="#000000" d="M99.436,42.478c0.061,0.398,0.103,0.802,0.153,1.203C99.538,43.28,99.496,42.876,99.436,42.478z"/><path fill="#000000" d="M97.054,33.067c0.059,0.165,0.11,0.333,0.168,0.499C97.164,33.4,97.112,33.232,97.054,33.067z"/><path fill="#000000" d="M97.812,35.346c0.065,0.211,0.12,0.427,0.182,0.64C97.933,35.773,97.878,35.558,97.812,35.346z"/><path fill="#000000" d="M96.19,30.842c0.052,0.123,0.097,0.249,0.147,0.373C96.287,31.091,96.242,30.965,96.19,30.842z"/><path fill="#000000" d="M99.007,40.053c0.065,0.324,0.116,0.653,0.175,0.979C99.123,40.706,99.072,40.377,99.007,40.053z"/><path fill="#000000" d="M95.227,28.672c0.042,0.088,0.079,0.177,0.12,0.266C95.306,28.849,95.269,28.76,95.227,28.672z"/><path fill="#000000" d="M99.981,49.25c-0.009-0.601-0.016-1.202-0.046-1.797C99.966,48.049,99.973,48.65,99.981,49.25    L99.981,49.25z"/><path fill="#000000" d="M98.465,37.675c0.067,0.266,0.122,0.536,0.186,0.803C98.587,38.21,98.532,37.94,98.465,37.675z"/><path fill="#000000" d="M94.166,26.559c0.03,0.058,0.059,0.116,0.089,0.174C94.225,26.676,94.196,26.617,94.166,26.559z"/><path fill="#000000" d="M93.009,24.505c0.021,0.034,0.039,0.068,0.059,0.102C93.048,24.573,93.029,24.539,93.009,24.505z"/><path fill="#000000" d="M50.75,99.982c0.01,0,0.02-0.001,0.029-0.001C50.77,99.981,50.76,99.981,50.75,99.982L50.75,99.982z"/><path fill="#000000" d="M88.995,81.28c-0.085,0.105-0.166,0.215-0.252,0.32C88.829,81.495,88.91,81.385,88.995,81.28z"/><path fill="#000000" d="M99.936,52.561c0.03-0.6,0.037-1.205,0.046-1.811l0,0C99.972,51.356,99.966,51.961,99.936,52.561z"/><path fill="#000000" d="M97.322,66.138c-0.108,0.32-0.209,0.644-0.325,0.961C97.113,66.782,97.214,66.458,97.322,66.138z"/><path fill="#000000" d="M90.486,79.327c-0.097,0.132-0.188,0.268-0.284,0.399C90.299,79.594,90.39,79.458,90.486,79.327z"/><path fill="#000000" d="M99.61,56.151c-0.059,0.477-0.11,0.955-0.182,1.428C99.5,57.106,99.552,56.627,99.61,56.151z"/><path fill="#000000" d="M83.996,86.652c-0.042,0.038-0.082,0.079-0.124,0.117C83.914,86.731,83.954,86.69,83.996,86.652z"/><path fill="#000000" d="M87.416,83.151c-0.073,0.083-0.143,0.168-0.216,0.25C87.273,83.319,87.343,83.234,87.416,83.151z"/><path fill="#000000" d="M82.176,88.261c-0.028,0.024-0.056,0.049-0.084,0.072C82.12,88.31,82.147,88.285,82.176,88.261z"/><path fill="#000000" d="M85.893,15.208c-0.007-0.006-0.013-0.014-0.02-0.021v0C85.879,15.195,85.886,15.202,85.893,15.208z"/><path fill="#000000" d="M94.38,73.024c-0.115,0.222-0.224,0.447-0.342,0.667C94.156,73.471,94.265,73.246,94.38,73.024z"/><path fill="#000000" d="M91.882,77.298c-0.104,0.16-0.203,0.324-0.31,0.483C91.679,77.623,91.777,77.458,91.882,77.298z"/><path fill="#000000" d="M95.472,70.788c-0.116,0.254-0.226,0.513-0.346,0.765C95.246,71.3,95.355,71.042,95.472,70.788z"/><path fill="#000000" d="M96.451,68.498c-0.113,0.284-0.219,0.573-0.337,0.855C96.232,69.071,96.338,68.782,96.451,68.498z"/><path fill="#000000" d="M93.178,75.202c-0.109,0.188-0.213,0.38-0.325,0.566C92.965,75.582,93.068,75.39,93.178,75.202z"/><path fill="#000000" d="M98.076,63.726c-0.101,0.354-0.193,0.713-0.302,1.064C97.883,64.439,97.976,64.081,98.076,63.726z"/><path fill="#000000" d="M99.221,58.752c-0.075,0.425-0.142,0.854-0.228,1.274C99.079,59.606,99.146,59.177,99.221,58.752z"/><path fill="#000000" d="M80.277,89.783c-0.013,0.01-0.025,0.021-0.038,0.03C80.252,89.803,80.265,89.792,80.277,89.783z"/><path fill="#000000" d="M99.869,53.44c-0.037,0.551-0.07,1.104-0.126,1.649C99.799,54.543,99.831,53.991,99.869,53.44z"/><path fill="#000000" d="M98.712,61.257c-0.091,0.393-0.172,0.787-0.271,1.176C98.54,62.044,98.621,61.65,98.712,61.257z"/><path d="M84.101,85.162c-8.655,8.39-20.388,13.625-33.351,13.82v1c0.01-0.001,0.02-0.001,0.029-0.001    c11.062-0.17,21.255-3.931,29.46-10.168c0.013-0.01,0.025-0.021,0.038-0.03c0.616-0.47,1.222-0.952,1.814-1.449    c0.028-0.023,0.056-0.048,0.084-0.072c0.576-0.485,1.143-0.981,1.696-1.492c0.042-0.038,0.082-0.079,0.124-0.117    c0.275-0.256,0.541-0.522,0.811-0.784L84.101,85.162z"/><path d="M85.167,15.895c8.395,8.654,13.619,20.392,13.814,33.356h1c-0.009-0.601-0.016-1.202-0.046-1.797    c-0.017-0.326-0.05-0.647-0.072-0.971c-0.036-0.513-0.066-1.028-0.117-1.538c-0.043-0.424-0.104-0.842-0.157-1.264    c-0.051-0.401-0.093-0.805-0.153-1.203c-0.073-0.486-0.166-0.965-0.254-1.446c-0.059-0.326-0.109-0.655-0.175-0.979    c-0.106-0.529-0.232-1.052-0.356-1.575c-0.063-0.268-0.118-0.538-0.186-0.803c-0.145-0.568-0.307-1.128-0.471-1.689    c-0.062-0.212-0.116-0.428-0.182-0.64c-0.184-0.6-0.385-1.191-0.591-1.78c-0.058-0.166-0.109-0.334-0.168-0.499    c-0.226-0.624-0.468-1.24-0.716-1.853c-0.051-0.124-0.096-0.25-0.147-0.373c-0.267-0.643-0.551-1.276-0.844-1.905    c-0.041-0.088-0.078-0.178-0.12-0.266c-0.31-0.654-0.635-1.3-0.972-1.938c-0.03-0.058-0.059-0.117-0.089-0.174    c-0.352-0.66-0.719-1.311-1.099-1.952c-0.02-0.034-0.038-0.068-0.059-0.102c-0.391-0.658-0.797-1.306-1.218-1.944    c-0.011-0.017-0.021-0.033-0.031-0.05c-0.429-0.648-0.871-1.286-1.328-1.913c-0.005-0.006-0.009-0.013-0.014-0.02    c-0.461-0.632-0.938-1.254-1.428-1.864c0,0-0.001-0.001-0.002-0.002c-0.49-0.609-0.994-1.207-1.511-1.792    c-0.003-0.003-0.006-0.006-0.008-0.009c-0.513-0.58-1.039-1.147-1.577-1.703c-0.007-0.006-0.014-0.014-0.02-0.02L85.167,15.895z"/><path d="M98.981,50.75c-0.195,12.965-5.419,24.703-13.815,33.355l0.706,0.706c0.45-0.464,0.896-0.931,1.328-1.411    c0.073-0.082,0.143-0.167,0.216-0.25c0.451-0.509,0.896-1.023,1.327-1.551c0.086-0.105,0.167-0.215,0.252-0.32    c0.41-0.511,0.816-1.026,1.207-1.554c0.097-0.132,0.188-0.268,0.284-0.399c0.369-0.51,0.735-1.021,1.086-1.545    c0.106-0.159,0.205-0.323,0.31-0.483c0.331-0.506,0.659-1.013,0.971-1.53c0.112-0.187,0.216-0.378,0.325-0.566    c0.293-0.499,0.585-1,0.86-1.511c0.118-0.22,0.227-0.445,0.342-0.667c0.253-0.487,0.508-0.975,0.746-1.472    c0.12-0.252,0.229-0.511,0.346-0.765c0.218-0.477,0.438-0.951,0.643-1.435c0.118-0.282,0.224-0.571,0.337-0.855    c0.186-0.465,0.375-0.928,0.546-1.398c0.116-0.317,0.217-0.641,0.325-0.961c0.153-0.448,0.312-0.894,0.452-1.348    c0.108-0.352,0.201-0.71,0.302-1.064c0.123-0.431,0.253-0.857,0.364-1.293c0.1-0.389,0.181-0.783,0.271-1.176    c0.094-0.409,0.197-0.816,0.281-1.23c0.086-0.421,0.152-0.85,0.228-1.274c0.069-0.392,0.147-0.779,0.208-1.174    c0.071-0.473,0.123-0.951,0.182-1.428c0.043-0.354,0.098-0.705,0.133-1.062c0.056-0.546,0.089-1.099,0.126-1.649    c0.02-0.293,0.051-0.584,0.066-0.879c0.03-0.6,0.036-1.205,0.046-1.811H98.981z"/><path fill="#000000" d="M85.747,84.945c-0.058,0.06-0.113,0.121-0.172,0.18C85.634,85.066,85.689,85.004,85.747,84.945z"/><polygon fill="#000000" points="15.188,85.874 15.197,85.882 15.188,85.874   "/><path fill="#000000" d="M49.25,99.982L49.25,99.982c-0.01-0.001-0.019-0.001-0.029-0.001C49.231,99.981,49.24,99.982,49.25,99.982    z"/><path d="M15.894,85.167l-0.707,0.707c0.003,0.003,0.006,0.006,0.01,0.009c8.828,8.564,20.801,13.895,34.024,14.099    c0.01,0,0.019,0,0.029,0.001v-1C36.286,98.787,24.548,93.562,15.894,85.167z"/><path fill="#000000" d="M0.019,50.75c0.009,0.601,0.016,1.201,0.046,1.797C0.035,51.952,0.028,51.351,0.019,50.75L0.019,50.75z"/><path fill="#000000" d="M8.11,22.715c0.107-0.165,0.209-0.333,0.318-0.496C8.319,22.382,8.217,22.55,8.11,22.715z"/><polygon fill="#000000" points="14.118,84.803 14.127,84.813 14.127,84.813   "/><path fill="#000000" d="M5.616,26.985c0.117-0.225,0.226-0.454,0.346-0.676C5.842,26.532,5.733,26.761,5.616,26.985z"/><path fill="#000000" d="M6.811,24.818c0.114-0.195,0.222-0.394,0.338-0.587C7.032,24.424,6.925,24.623,6.811,24.818z"/><path fill="#000000" d="M12.584,16.85c0.073-0.083,0.143-0.167,0.216-0.25C12.727,16.682,12.657,16.767,12.584,16.85z"/><path fill="#000000" d="M9.508,20.683c0.098-0.136,0.191-0.275,0.291-0.409C9.699,20.408,9.606,20.547,9.508,20.683z"/><path fill="#000000" d="M19.732,10.21c0.009-0.007,0.018-0.014,0.026-0.021C19.75,10.196,19.741,10.204,19.732,10.21z"/><path fill="#000000" d="M0.065,47.439c-0.03,0.6-0.037,1.206-0.046,1.811h0C0.028,48.645,0.035,48.04,0.065,47.439z"/><path fill="#000000" d="M17.835,11.73c0.024-0.02,0.047-0.042,0.071-0.062C17.882,11.689,17.859,11.71,17.835,11.73z"/><path fill="#000000" d="M2.671,33.882c0.111-0.327,0.214-0.657,0.332-0.981C2.885,33.225,2.782,33.555,2.671,33.882z"/><path fill="#000000" d="M16.003,13.35c0.042-0.039,0.083-0.08,0.125-0.119C16.085,13.27,16.045,13.311,16.003,13.35z"/><path fill="#000000" d="M3.54,31.527c0.117-0.293,0.225-0.59,0.347-0.881C3.765,30.937,3.656,31.234,3.54,31.527z"/><path fill="#000000" d="M11.002,18.725c0.086-0.107,0.168-0.218,0.255-0.325C11.17,18.507,11.088,18.618,11.002,18.725z"/><path fill="#000000" d="M4.521,29.23c0.119-0.26,0.23-0.525,0.354-0.783C4.751,28.705,4.64,28.97,4.521,29.23z"/><path fill="#000000" d="M0.993,59.948c-0.065-0.324-0.116-0.652-0.175-0.979C0.877,59.294,0.927,59.624,0.993,59.948z"/><path fill="#000000" d="M4.772,71.327c-0.04-0.083-0.075-0.168-0.114-0.252C4.697,71.159,4.732,71.244,4.772,71.327z"/><path fill="#000000" d="M0.564,57.523c-0.06-0.398-0.102-0.802-0.153-1.203C0.462,56.721,0.504,57.125,0.564,57.523z"/><path fill="#000000" d="M1.535,62.325c-0.066-0.262-0.121-0.529-0.183-0.793C1.414,61.795,1.468,62.063,1.535,62.325z"/><path fill="#000000" d="M0.388,43.864c0.059-0.481,0.111-0.964,0.183-1.441C0.499,42.899,0.447,43.383,0.388,43.864z"/><path fill="#000000" d="M9.579,79.418c-0.001-0.002-0.002-0.004-0.003-0.005C9.577,79.415,9.578,79.417,9.579,79.418z"/><path fill="#000000" d="M8.238,77.487c-0.007-0.012-0.015-0.023-0.022-0.035C8.224,77.463,8.231,77.475,8.238,77.487z"/><path fill="#000000" d="M2.187,64.654c-0.063-0.208-0.117-0.419-0.178-0.628C2.069,64.235,2.123,64.447,2.187,64.654z"/><path fill="#000000" d="M2.946,66.932c-0.058-0.161-0.109-0.326-0.165-0.487C2.837,66.606,2.888,66.771,2.946,66.932z"/><path fill="#000000" d="M0.13,46.57c0.038-0.554,0.071-1.109,0.126-1.658C0.201,45.46,0.168,46.016,0.13,46.57z"/><path fill="#000000" d="M0.254,55.056c-0.051-0.509-0.081-1.024-0.117-1.538C0.173,54.032,0.203,54.547,0.254,55.056z"/><path fill="#000000" d="M5.833,73.44c-0.028-0.054-0.054-0.107-0.082-0.161C5.779,73.333,5.805,73.386,5.833,73.44z"/><path fill="#000000" d="M3.809,69.158c-0.05-0.12-0.095-0.243-0.144-0.364C3.715,68.915,3.759,69.038,3.809,69.158z"/><path fill="#000000" d="M1.92,36.285c0.102-0.358,0.196-0.72,0.306-1.075C2.116,35.564,2.022,35.926,1.92,36.285z"/><path fill="#000000" d="M1.288,38.746c0.09-0.393,0.172-0.789,0.272-1.178C1.46,37.957,1.378,38.353,1.288,38.746z"/><path fill="#000000" d="M6.989,75.494c-0.018-0.029-0.034-0.06-0.051-0.09C6.956,75.434,6.972,75.464,6.989,75.494z"/><path fill="#000000" d="M0.777,41.262c0.076-0.43,0.144-0.863,0.23-1.289C0.92,40.399,0.853,40.832,0.777,41.262z"/><path d="M14.833,84.106C6.438,75.452,1.214,63.713,1.019,50.75h-1c0.009,0.601,0.016,1.201,0.045,1.797    c0.016,0.326,0.05,0.646,0.072,0.971c0.036,0.514,0.066,1.029,0.117,1.538c0.042,0.424,0.104,0.843,0.158,1.264    c0.051,0.401,0.093,0.805,0.153,1.203c0.073,0.485,0.166,0.965,0.253,1.446c0.059,0.326,0.109,0.654,0.175,0.979    c0.108,0.532,0.234,1.058,0.359,1.584c0.062,0.264,0.117,0.531,0.183,0.793c0.145,0.572,0.309,1.138,0.474,1.701    c0.061,0.209,0.114,0.42,0.178,0.628c0.185,0.603,0.388,1.197,0.595,1.791c0.056,0.161,0.107,0.326,0.165,0.487    c0.226,0.627,0.469,1.246,0.719,1.861c0.049,0.121,0.093,0.244,0.144,0.364c0.269,0.646,0.554,1.284,0.849,1.917    c0.039,0.084,0.074,0.169,0.114,0.252c0.312,0.659,0.64,1.31,0.979,1.952c0.028,0.054,0.054,0.107,0.082,0.161    c0.354,0.664,0.723,1.318,1.105,1.964c0.018,0.03,0.034,0.061,0.051,0.09c0.394,0.663,0.803,1.315,1.227,1.958    c0.008,0.012,0.015,0.023,0.022,0.035c0.431,0.653,0.877,1.295,1.337,1.927c0.001,0.001,0.002,0.003,0.003,0.005    c1.387,1.9,2.904,3.7,4.539,5.385c0.003,0.003,0.006,0.007,0.009,0.01L14.833,84.106z"/><path d="M1.019,49.25c0.196-12.965,5.418-24.704,13.815-33.355l-0.706-0.706c-0.45,0.463-0.896,0.931-1.328,1.411    c-0.073,0.082-0.143,0.167-0.216,0.25c-0.452,0.509-0.896,1.024-1.327,1.551c-0.087,0.107-0.169,0.217-0.255,0.325    c-0.41,0.51-0.813,1.023-1.203,1.549c-0.1,0.134-0.193,0.273-0.291,0.409c-0.367,0.506-0.731,1.015-1.08,1.536    c-0.109,0.163-0.211,0.332-0.318,0.496c-0.327,0.501-0.652,1.003-0.961,1.516c-0.116,0.193-0.224,0.393-0.338,0.587    c-0.288,0.494-0.576,0.987-0.848,1.491c-0.12,0.223-0.229,0.451-0.346,0.676c-0.252,0.484-0.505,0.968-0.742,1.462    C4.751,28.705,4.64,28.97,4.521,29.23c-0.215,0.47-0.433,0.938-0.634,1.416c-0.122,0.291-0.23,0.588-0.347,0.881    c-0.182,0.457-0.368,0.911-0.537,1.374c-0.118,0.324-0.221,0.654-0.332,0.981c-0.15,0.442-0.307,0.88-0.445,1.328    c-0.11,0.355-0.204,0.717-0.306,1.075c-0.122,0.427-0.25,0.852-0.361,1.283c-0.1,0.389-0.182,0.785-0.272,1.178    c-0.094,0.409-0.197,0.814-0.281,1.227c-0.086,0.426-0.154,0.859-0.23,1.289c-0.068,0.387-0.146,0.77-0.206,1.16    c-0.072,0.477-0.124,0.96-0.183,1.441c-0.042,0.35-0.096,0.696-0.132,1.048C0.201,45.46,0.168,46.016,0.13,46.57    c-0.02,0.291-0.051,0.578-0.065,0.87c-0.03,0.6-0.037,1.206-0.046,1.811H1.019z"/><path d="M15.899,14.839C24.554,6.449,36.287,1.215,49.25,1.02v-1c-11.075,0.164-21.279,3.926-29.491,10.17    c-0.009,0.007-0.018,0.014-0.026,0.021c-0.62,0.472-1.229,0.958-1.826,1.458c-0.024,0.021-0.047,0.042-0.071,0.062    c-0.58,0.488-1.15,0.988-1.707,1.5c-0.042,0.039-0.083,0.08-0.125,0.119c-0.275,0.255-0.54,0.521-0.81,0.783L15.899,14.839z"/><polygon points="50,0 50,0 50,0   "/><path d="M49.25,0V0.02C49.5,0.016,49.748,0,50,0H49.25z"/><path d="M50,0C50,0,50,0,50,0c-0.252,0-0.5,0.015-0.75,0.019l0,0C49.5,0.016,49.749,0,50,0z"/><path d="M50.75,0.02V0H50c0.04,0,0.08,0.002,0.12,0.003C50.331,0.004,50.54,0.016,50.75,0.02z"/><path d="M50.75,0.02L50.75,0.02c-0.21-0.003-0.419-0.016-0.63-0.016C50.331,0.007,50.54,0.016,50.75,0.02z"/><path fill="#000000" d="M50.12,0.003C50.08,0.003,50.04,0,50,0l0,0C50.04,0,50.08,0.003,50.12,0.003z"/><polygon fill="#000000" points="15.182,85.868 15.188,85.874 15.188,85.874   "/><polygon fill="#000000" points="85.873,15.188 85.873,15.188 85.861,15.176   "/><polygon fill="#000000" points="84.812,14.127 84.812,14.128 84.824,14.14   "/></g></g><g><g><path d="M5.75,26.722c0.338-0.641,0.69-1.272,1.055-1.896C6.441,25.45,6.088,26.082,5.75,26.722z"/><path d="M22.876,91.994c-0.533-0.345-1.059-0.699-1.578-1.063C21.817,91.294,22.343,91.649,22.876,91.994z"/><path d="M6.886,24.687c0.379-0.643,0.772-1.277,1.178-1.901C7.658,23.41,7.264,24.043,6.886,24.687z"/><path d="M8.11,22.713c0.418-0.64,0.85-1.27,1.296-1.889C8.961,21.444,8.528,22.073,8.11,22.713z"/><path d="M19.184,89.359c-0.543-0.427-1.08-0.862-1.605-1.311C18.105,88.497,18.64,88.932,19.184,89.359z"/><path d="M4.708,28.814c0.297-0.632,0.608-1.256,0.93-1.873C5.316,27.559,5.004,28.182,4.708,28.814z"/><path d="M70.115,4.225c0.893,0.393,1.771,0.813,2.636,1.256C71.886,5.038,71.009,4.618,70.115,4.225z"/><path d="M2.911,33.172c0.214-0.599,0.444-1.19,0.681-1.778C3.355,31.982,3.125,32.573,2.911,33.172z"/><path d="M20.996,90.714c-0.54-0.385-1.072-0.779-1.595-1.186C19.924,89.935,20.456,90.33,20.996,90.714z"/><path d="M3.761,30.966c0.254-0.618,0.524-1.227,0.803-1.832C4.286,29.739,4.015,30.348,3.761,30.966z"/><path d="M24.822,93.192c-0.523-0.307-1.041-0.621-1.552-0.945C23.782,92.571,24.299,92.885,24.822,93.192z"/><path d="M53.599,0.143c0.759,0.055,1.514,0.122,2.263,0.21C55.112,0.266,54.357,0.197,53.599,0.143z"/><path d="M33.235,97.11c-0.462-0.165-0.919-0.341-1.375-0.519C32.316,96.769,32.772,96.946,33.235,97.11z"/><path d="M35.484,97.852c-0.441-0.135-0.877-0.28-1.313-0.426C34.606,97.572,35.042,97.717,35.484,97.852z"/><path d="M31.042,96.269c-0.481-0.197-0.957-0.405-1.43-0.617C30.086,95.864,30.561,96.072,31.042,96.269z"/><path d="M56.529,0.438c0.793,0.104,1.58,0.225,2.361,0.366C58.109,0.664,57.322,0.542,56.529,0.438z"/><path d="M28.908,95.333c-0.498-0.232-0.989-0.474-1.478-0.722C27.919,94.86,28.41,95.102,28.908,95.333z"/><path d="M41.543,0.727c0.449-0.077,0.9-0.15,1.353-0.215C42.442,0.576,41.992,0.65,41.543,0.727z"/><path d="M46.996,0.098c0.262-0.016,0.523-0.03,0.787-0.042C47.519,0.067,47.257,0.083,46.996,0.098z"/><path d="M26.834,94.306c-0.511-0.268-1.017-0.545-1.518-0.831C25.817,93.76,26.322,94.039,26.834,94.306z"/><path d="M44.157,0.351c0.451-0.053,0.903-0.1,1.357-0.141C45.06,0.251,44.607,0.298,44.157,0.351z"/><path d="M2.163,35.432c0.175-0.575,0.366-1.142,0.562-1.708C2.529,34.29,2.337,34.857,2.163,35.432z"/><path d="M1.358,61.561c-0.122-0.515-0.248-1.027-0.354-1.549C1.11,60.534,1.236,61.046,1.358,61.561z"/><path d="M7.006,75.522c-0.369-0.619-0.728-1.244-1.07-1.881C6.279,74.278,6.638,74.903,7.006,75.522z"/><path d="M0.819,58.976c-0.085-0.468-0.177-0.935-0.249-1.407C0.642,58.042,0.734,58.508,0.819,58.976z"/><path d="M8.3,77.582c-0.406-0.612-0.802-1.232-1.181-1.864C7.498,76.349,7.894,76.969,8.3,77.582z"/><path d="M0.411,56.313c-0.052-0.41-0.113-0.816-0.155-1.229C0.298,55.497,0.359,55.903,0.411,56.313z"/><path d="M5.808,73.389c-0.33-0.621-0.65-1.247-0.954-1.883C5.157,72.142,5.479,72.768,5.808,73.389z"/><path d="M4.701,71.168c-0.287-0.613-0.568-1.23-0.831-1.856C4.133,69.939,4.414,70.555,4.701,71.168z"/><path d="M2.807,66.519c-0.204-0.582-0.406-1.165-0.589-1.757C2.4,65.354,2.603,65.937,2.807,66.519z"/><path d="M2.022,64.074c-0.162-0.552-0.325-1.104-0.468-1.663C1.698,62.97,1.861,63.522,2.022,64.074z"/><path d="M9.675,79.553c-0.439-0.599-0.867-1.205-1.28-1.823C8.808,78.348,9.236,78.955,9.675,79.553z"/><path d="M0.56,42.517c0.071-0.475,0.161-0.943,0.246-1.414C0.721,41.574,0.631,42.042,0.56,42.517z"/><path d="M0.134,53.486c-0.021-0.31-0.054-0.615-0.069-0.926C0.081,52.871,0.113,53.176,0.134,53.486z"/><path d="M0.252,44.971c0.042-0.423,0.103-0.84,0.156-1.26C0.355,44.131,0.294,44.548,0.252,44.971z"/><path d="M17.443,87.931c-0.546-0.47-1.083-0.949-1.608-1.44C16.361,86.982,16.897,87.461,17.443,87.931z"/><path d="M14.26,84.952c-0.506-0.519-1.004-1.045-1.488-1.584C13.255,83.907,13.753,84.433,14.26,84.952z"/><path d="M0.983,40.108c0.104-0.516,0.225-1.024,0.344-1.534C1.208,39.084,1.086,39.593,0.983,40.108z"/><path d="M1.519,37.746c0.138-0.546,0.292-1.086,0.448-1.625C1.812,36.66,1.656,37.199,1.519,37.746z"/><path d="M0,50L0,50c0-0.012,0.001-0.023,0.001-0.035C0.001,49.976,0,49.988,0,50z"/><path d="M11.128,81.436c-0.467-0.576-0.923-1.161-1.364-1.758C10.206,80.275,10.662,80.86,11.128,81.436z"/><path d="M12.659,83.237c-0.49-0.549-0.97-1.107-1.435-1.679C11.689,82.129,12.169,82.688,12.659,83.237z"/><path d="M0.064,47.466c0.017-0.333,0.05-0.662,0.074-0.994C0.114,46.804,0.081,47.132,0.064,47.466z"/><path d="M59.703,99.05c-0.925,0.183-1.86,0.333-2.802,0.464C57.844,99.384,58.778,99.232,59.703,99.05z"/><path d="M52.921,0.091C51.953,0.036,50.981,0,50,0c-0.042,0-0.084,0.003-0.127,0.003c0.042,0,0.084-0.002,0.126-0.002    C50.98,0.001,51.953,0.035,52.921,0.091z"/><path d="M62.864,98.321c-1.013,0.269-2.037,0.508-3.074,0.714C60.827,98.829,61.852,98.589,62.864,98.321z"/><path d="M53.015,99.901c-0.958,0.058-1.921,0.093-2.893,0.096C51.094,99.994,52.057,99.958,53.015,99.901z"/><path d="M67.641,96.789c-0.782,0.295-1.573,0.571-2.373,0.828C66.067,97.36,66.858,97.083,67.641,96.789z"/><path d="M3.7,68.88c-0.246-0.601-0.487-1.205-0.709-1.817C3.213,67.675,3.455,68.279,3.7,68.88z"/><path d="M56.132,99.612c-0.745,0.092-1.496,0.165-2.251,0.224C54.636,99.777,55.387,99.703,56.132,99.612z"/><path d="M97.677,34.91L83.5,49.086L50.414,16L64.32,2.093c1.977,0.59,3.901,1.299,5.768,2.119    c-3.405-1.496-7.008-2.622-10.76-3.33c0.933,0.177,1.858,0.375,2.772,0.602L48.999,14.586L36.323,1.91    c1.54-0.437,3.109-0.8,4.705-1.092c-8.949,1.623-17.064,5.623-23.673,11.328c4.873-4.206,10.565-7.485,16.807-9.569L47.585,16    L32.437,31.149L15.304,14.016c0.658-0.635,1.334-1.251,2.026-1.849c-2.959,2.558-5.614,5.454-7.906,8.633    c1.365-1.892,2.859-3.686,4.469-5.367l17.13,17.13L13.379,50.208c-0.001,0.001-0.003,0.001-0.004,0.002    c-0.391,0.393-0.391,1.023,0,1.414s1.022,0.393,1.414,0l0.001,0.002l17.648-17.648L48.961,50.5L14.382,85.08    c0.468,0.475,0.948,0.937,1.435,1.393l17.621-17.62l29.459,29.46c0.737-0.196,1.469-0.406,2.193-0.635L34.852,67.438    l15.523-15.523l34.191,34.192c0.481-0.461,0.954-0.932,1.418-1.411L68.352,67.063L83.5,51.915l13.924,13.924    c0.238-0.713,0.46-1.434,0.666-2.161L84.914,50.5l13.397-13.397 M66.938,65.649L33.852,32.563L49,17.415L82.086,50.5    L66.938,65.649z"/><path d="M32.171,49.293c-2.159,0-3.911,1.752-3.911,3.912l3.911,6.037l3.913-6.037C36.084,51.045,34.333,49.293,32.171,49.293z     M32.173,54.68c-1.001,0-1.812-0.812-1.812-1.812s0.812-1.811,1.812-1.811c0.999,0,1.811,0.811,1.811,1.811    S33.172,54.68,32.173,54.68z"/><path d="M84.53,86.141c-0.665,0.636-1.347,1.253-2.045,1.852C83.185,87.394,83.865,86.777,84.53,86.141z"/><path d="M72.785,94.501c-0.657,0.338-1.324,0.661-1.998,0.97C71.461,95.163,72.127,94.839,72.785,94.501z"/><path d="M70.201,95.737c-0.656,0.29-1.32,0.564-1.99,0.827C68.882,96.301,69.545,96.027,70.201,95.737z"/><path d="M82.453,88.02c-2.824,2.414-5.922,4.517-9.237,6.261C76.533,92.538,79.628,90.434,82.453,88.02z"/><path d="M72.941,5.578"/><path d="M42.535,99.442c-0.351-0.052-0.697-0.119-1.046-0.179C41.837,99.323,42.184,99.39,42.535,99.442z"/><path d="M37.784,98.49c-0.417-0.104-0.828-0.222-1.24-0.337C36.957,98.268,37.368,98.385,37.784,98.49z"/><path d="M40.137,99.022c-0.388-0.078-0.772-0.169-1.157-0.256C39.366,98.853,39.749,98.944,40.137,99.022z"/><path d="M44.978,99.749c-0.296-0.03-0.588-0.073-0.883-0.107C44.39,99.675,44.682,99.719,44.978,99.749z"/><path d="M47.46,99.935c-0.183-0.009-0.363-0.028-0.546-0.04C47.097,99.907,47.277,99.926,47.46,99.935z"/><path fill="#000000" d="M38.98,98.766c-0.399-0.09-0.8-0.177-1.196-0.276C38.18,98.589,38.581,98.676,38.98,98.766z"/><path fill="#000000" d="M21.299,90.93c-0.102-0.071-0.202-0.144-0.303-0.216C21.097,90.787,21.197,90.859,21.299,90.93z"/><path fill="#000000" d="M19.401,89.529c-0.073-0.056-0.145-0.113-0.217-0.17C19.256,89.416,19.328,89.473,19.401,89.529z"/><path fill="#000000" d="M29.612,95.652c-0.235-0.105-0.471-0.21-0.704-0.318C29.142,95.442,29.377,95.546,29.612,95.652z"/><path fill="#000000" d="M31.86,96.591c-0.273-0.106-0.547-0.211-0.817-0.322C31.313,96.38,31.587,96.485,31.86,96.591z"/><path fill="#000000" d="M46.914,99.895c-0.648-0.039-1.295-0.083-1.936-0.146C45.619,99.812,46.266,99.856,46.914,99.895z"/><path fill="#000000" d="M34.17,97.426c-0.312-0.104-0.625-0.206-0.935-0.316C33.545,97.22,33.858,97.322,34.17,97.426z"/><path fill="#000000" d="M15.816,86.473c0.006,0.006,0.013,0.012,0.019,0.018C15.829,86.485,15.823,86.478,15.816,86.473    L15.816,86.473z"/><path fill="#000000" d="M56.901,99.514c-0.256,0.035-0.513,0.066-0.77,0.098C56.389,99.581,56.646,99.549,56.901,99.514z"/><path fill="#000000" d="M36.544,98.153c-0.354-0.099-0.709-0.195-1.06-0.301C35.834,97.958,36.19,98.054,36.544,98.153z"/><path fill="#000000" d="M59.79,99.035c-0.029,0.006-0.059,0.01-0.087,0.016C59.731,99.044,59.761,99.041,59.79,99.035z"/><path fill="#000000" d="M25.316,93.475c-0.165-0.094-0.33-0.188-0.494-0.283C24.986,93.288,25.151,93.381,25.316,93.475z"/><path fill="#000000" d="M44.095,99.641c-0.521-0.062-1.044-0.121-1.561-0.199C43.051,99.52,43.574,99.58,44.095,99.641z"/><path fill="#000000" d="M17.579,88.048c-0.045-0.039-0.09-0.079-0.136-0.117C17.489,87.969,17.534,88.009,17.579,88.048z"/><path fill="#000000" d="M27.431,94.612c-0.2-0.101-0.399-0.202-0.597-0.306C27.032,94.41,27.231,94.51,27.431,94.612z"/><path fill="#000000" d="M53.881,99.835c-0.289,0.021-0.576,0.048-0.866,0.065C53.305,99.883,53.592,99.858,53.881,99.835z"/><path fill="#000000" d="M41.488,99.263c-0.451-0.077-0.904-0.151-1.351-0.241C40.584,99.112,41.037,99.186,41.488,99.263z"/><path fill="#000000" d="M62.897,98.313L62.897,98.313c-0.012,0.002-0.022,0.005-0.033,0.008    C62.875,98.318,62.887,98.316,62.897,98.313z"/><path fill="#000000" d="M23.271,92.247c-0.132-0.084-0.263-0.168-0.394-0.253C23.007,92.079,23.139,92.163,23.271,92.247z"/><path fill="#000000" d="M47.46,99.935c0.841,0.042,1.688,0.065,2.539,0.065c0.042,0,0.082-0.004,0.123-0.004    C50.081,99.997,50.041,100,50,100C49.148,100,48.302,99.977,47.46,99.935z"/><path fill="#000000" d="M98.091,63.678c0.005-0.017,0.009-0.033,0.013-0.049C98.1,63.645,98.095,63.662,98.091,63.678    L98.091,63.678z"/><path fill="#000000" d="M8.395,77.73c-0.033-0.049-0.062-0.1-0.095-0.148C8.333,77.63,8.362,77.681,8.395,77.73z"/><path fill="#000000" d="M3.87,69.312c-0.06-0.143-0.111-0.288-0.17-0.432C3.759,69.024,3.811,69.169,3.87,69.312z"/><path fill="#000000" d="M8.064,22.786c0.016-0.024,0.031-0.048,0.046-0.072C8.095,22.737,8.08,22.761,8.064,22.786z"/><path fill="#000000" d="M5.638,26.941c0.038-0.073,0.074-0.146,0.112-0.219C5.712,26.795,5.676,26.869,5.638,26.941z"/><path fill="#000000" d="M6.806,24.826c0.027-0.046,0.053-0.093,0.08-0.139C6.858,24.733,6.833,24.78,6.806,24.826z"/><path fill="#000000" d="M2.218,64.762c-0.07-0.228-0.128-0.459-0.195-0.688C2.089,64.303,2.147,64.535,2.218,64.762z"/><path fill="#000000" d="M4.854,71.506C4.8,71.395,4.753,71.28,4.701,71.168C4.753,71.28,4.8,71.395,4.854,71.506z"/><path fill="#000000" d="M2.991,67.063c-0.065-0.18-0.121-0.363-0.184-0.544C2.87,66.7,2.925,66.883,2.991,67.063z"/><path fill="#000000" d="M5.937,73.641c-0.044-0.083-0.084-0.169-0.129-0.252C5.852,73.472,5.892,73.558,5.937,73.641z"/><path fill="#000000" d="M1.555,62.411c-0.072-0.281-0.129-0.567-0.196-0.85C1.425,61.843,1.483,62.13,1.555,62.411z"/><path fill="#000000" d="M0.57,57.569c-0.063-0.415-0.107-0.837-0.16-1.256C0.463,56.732,0.507,57.154,0.57,57.569z"/><path fill="#000000" d="M4.564,29.134c0.049-0.106,0.095-0.213,0.144-0.319C4.659,28.92,4.613,29.028,4.564,29.134z"/><path fill="#000000" d="M1.004,60.012c-0.07-0.342-0.123-0.69-0.185-1.036C0.882,59.322,0.935,59.67,1.004,60.012z"/><path fill="#000000" d="M7.119,75.717c-0.039-0.064-0.074-0.131-0.112-0.195C7.045,75.586,7.08,75.653,7.119,75.717z"/><path fill="#000000" d="M9.407,20.824c0.006-0.008,0.012-0.016,0.018-0.024C9.418,20.808,9.413,20.816,9.407,20.824z"/><path fill="#000000" d="M12.771,83.368c-0.038-0.043-0.074-0.088-0.112-0.131C12.697,83.28,12.733,83.325,12.771,83.368z"/><path fill="#000000" d="M14.381,85.081L14.381,85.081c-0.041-0.043-0.08-0.087-0.122-0.129    C14.301,84.994,14.34,85.039,14.381,85.081z"/><path fill="#000000" d="M0.138,46.472c0.035-0.501,0.064-1.004,0.114-1.501C0.202,45.468,0.173,45.971,0.138,46.472z"/><path fill="#000000" d="M0.408,43.711c0.05-0.398,0.092-0.799,0.152-1.194C0.5,42.913,0.458,43.313,0.408,43.711z"/><path fill="#000000" d="M0.805,41.103c0.06-0.332,0.111-0.666,0.178-0.995C0.917,40.438,0.865,40.771,0.805,41.103z"/><path fill="#000000" d="M0.001,49.964c0-0.838,0.022-1.671,0.063-2.499C0.022,48.293,0.001,49.126,0.001,49.964z"/><path fill="#000000" d="M9.764,79.678c-0.03-0.041-0.059-0.084-0.089-0.125C9.706,79.594,9.734,79.637,9.764,79.678z"/><path fill="#000000" d="M1.327,38.574c0.064-0.276,0.122-0.554,0.191-0.828C1.449,38.02,1.392,38.298,1.327,38.574z"/><path fill="#000000" d="M0.256,55.084c-0.053-0.529-0.084-1.065-0.122-1.599C0.171,54.019,0.203,54.555,0.256,55.084z"/><path fill="#000000" d="M3.592,31.394c0.057-0.143,0.11-0.287,0.169-0.428C3.702,31.107,3.649,31.251,3.592,31.394z"/><path fill="#000000" d="M11.225,81.558c-0.033-0.04-0.063-0.082-0.096-0.122C11.161,81.476,11.191,81.518,11.225,81.558z"/><path fill="#000000" d="M0,50c0,0.858,0.022,1.712,0.065,2.56C0.022,51.712,0,50.858,0,50L0,50z"/><path fill="#000000" d="M1.967,36.121c0.066-0.229,0.126-0.461,0.196-0.689C2.093,35.66,2.033,35.892,1.967,36.121z"/><path fill="#000000" d="M2.724,33.724c0.063-0.184,0.122-0.369,0.187-0.552C2.846,33.355,2.787,33.541,2.724,33.724z"/><path fill="#000000" d="M45.514,0.21c0.492-0.044,0.986-0.083,1.482-0.112C46.5,0.128,46.006,0.166,45.514,0.21z"/><path fill="#000000" d="M55.861,0.354c0.224,0.026,0.445,0.056,0.668,0.084C56.307,0.409,56.085,0.38,55.861,0.354z"/><path fill="#000000" d="M42.896,0.511c0.418-0.06,0.839-0.111,1.261-0.16C43.735,0.401,43.314,0.451,42.896,0.511z"/><path fill="#000000" d="M41.028,0.818c0.171-0.031,0.343-0.062,0.515-0.092C41.371,0.756,41.199,0.787,41.028,0.818z"/><path fill="#000000" d="M58.891,0.804c0.146,0.026,0.292,0.051,0.438,0.079C59.183,0.854,59.036,0.83,58.891,0.804z"/><path fill="#000000" d="M47.782,0.056c0.693-0.03,1.39-0.051,2.091-0.053C49.172,0.005,48.476,0.025,47.782,0.056z"/><path fill="#000000" d="M52.921,0.091c0.227,0.013,0.451,0.036,0.678,0.052C53.372,0.126,53.147,0.105,52.921,0.091z"/><path fill="#000000" d="M17.33,12.167c0.008-0.007,0.016-0.014,0.024-0.021C17.346,12.153,17.338,12.16,17.33,12.167z"/><path fill="#000000" d="M73.216,94.281c-0.143,0.075-0.287,0.146-0.431,0.221C72.929,94.427,73.073,94.356,73.216,94.281z"/><path fill="#000000" d="M68.211,96.564c-0.19,0.074-0.379,0.152-0.57,0.225C67.832,96.716,68.021,96.638,68.211,96.564z"/><path fill="#000000" d="M65.091,97.678c0.06-0.019,0.117-0.043,0.177-0.062C65.208,97.635,65.149,97.658,65.091,97.678    L65.091,97.678z"/><path fill="#000000" d="M84.567,86.108L84.567,86.108c-0.013,0.011-0.025,0.021-0.037,0.033    C84.543,86.129,84.556,86.12,84.567,86.108z"/><path fill="#000000" d="M70.787,95.471c-0.195,0.09-0.391,0.179-0.586,0.266C70.396,95.649,70.592,95.561,70.787,95.471z"/><path fill="#000000" d="M82.485,87.993c-0.011,0.009-0.021,0.019-0.032,0.027C82.464,88.011,82.475,88.001,82.485,87.993z"/><path fill="#000000" d="M72.751,5.48c0.063,0.032,0.127,0.065,0.19,0.097C72.878,5.545,72.814,5.513,72.751,5.48z"/><path fill="#000000" d="M70.088,4.212c0.009,0.004,0.019,0.008,0.027,0.013C70.106,4.22,70.097,4.216,70.088,4.212z"/><polygon fill="#000000" points="97.424,65.838 97.424,65.838 97.423,65.841   "/><path fill="#000000" d="M85.984,84.696c0.005-0.005,0.01-0.011,0.015-0.017C85.994,84.685,85.989,84.69,85.984,84.696    L85.984,84.696z"/></g><g><path d="M50,0C22.386,0,0,22.386,0,50s22.386,50,50,50s50-22.386,50-50S77.614,0,50,0z M50,98.5C23.215,98.5,1.5,76.786,1.5,50    S23.215,1.5,50,1.5S98.5,23.215,98.5,50S76.785,98.5,50,98.5z"/></g></g><g display="none"><g display="inline"><path d="M50,0C22.387,0,0,22.386,0,50s22.386,50,50,50c27.614,0,50-22.387,50-50S77.614,0,50,0z M50,95C25.149,95,5,74.85,5,50    C5,25.149,25.149,5,50,5s45,20.149,45,45C95,74.85,74.851,95,50,95z"/></g><g display="inline"><path d="M50,38.981c-6.426,0-11.726,4.814-12.5,11.032h25C61.728,43.795,56.428,38.981,50,38.981z"/></g></g><text x="0" y="115" fill="#000000" font-size="5px" font-weight="bold" font-family="'Helvetica Neue', Helvetica, Arial-Unicode, Arial, Sans-serif">Created by Paul Stevens</text><text x="0" y="120" fill="#000000" font-size="5px" font-weight="bold" font-family="'Helvetica Neue', Helvetica, Arial-Unicode, Arial, Sans-serif">from the Noun Project</text></svg>