<?xml version="1.0"?>
<svg width="640" height="479.99999999999994" xmlns="http://www.w3.org/2000/svg" xmlns:svg="http://www.w3.org/2000/svg" xmlns:xlink="http://www.w3.org/1999/xlink">
 <!-- Created with SVG-edit - http://svg-edit.googlecode.com/ -->
 <defs>
  <symbol id="svg_39" viewBox="0 0 128 160" y="0px" x="0px" xmlns:xlink="http://www.w3.org/1999/xlink" xmlns="http://www.w3.org/2000/svg">
   <path d="m127.890999,123.227997l-35.103996,-33.559998c8.524994,-9.437996 13.75,-21.89801 13.75,-35.578999c0,-29.343 -23.871002,-53.214001 -53.211002,-53.214001c-29.342001,0 -53.217,23.864 -53.217,53.214001c0,29.349003 23.874999,53.219997 53.224,53.219997c13.728996,0 26.218002,-5.270996 35.662003,-13.827995l35.182999,33.644997l3.712997,-3.898003zm-74.557999,-21.294998c-26.375,0 -47.837,-21.465996 -47.837,-47.843998c0,-26.375 21.456,-47.831001 47.837,-47.831001c26.375,0 47.827003,21.455989 47.827003,47.831001c0,26.378002 -21.459007,47.843998 -47.827003,47.843998z"/>
   <text font-family="&#x27;Helvetica Neue', Helvetica, Arial-Unicode, Arial, Sans-serif" font-weight="bold" font-size="5px" fill="#000000" y="143" x="0">Created by Jack NUMBER</text>
   <text font-family="&#x27;Helvetica Neue', Helvetica, Arial-Unicode, Arial, Sans-serif" font-weight="bold" font-size="5px" fill="#000000" y="148" x="0">from the Noun Project</text>
  </symbol>
  <symbol id="svg_41" viewBox="0 0 100 125" y="0px" x="0px" xmlns:xlink="http://www.w3.org/1999/xlink" xmlns="http://www.w3.org/2000/svg">
   <g display="none">
    <g display="inline">
     <path d="m0.065,47.438999c0.015,-0.292 0.045,-0.578999 0.065,-0.868999c-0.02,0.290001 -0.05,0.577 -0.065,0.868999z"/>
     <path d="m49.221001,99.981003c-13.223,-0.204002 -25.195999,-5.533997 -34.023998,-14.098999c8.827997,8.564995 20.800999,13.895996 34.023998,14.098999z"/>
     <path d="m1.352,61.532001c-0.125,-0.526001 -0.251,-1.052002 -0.359,-1.584c0.107,0.531998 0.234,1.056999 0.359,1.584z"/>
     <path d="m14.118,84.803001c-1.635,-1.684998 -3.152,-3.484001 -4.539,-5.385002c1.386999,1.902 2.903999,3.699997 4.539,5.385002z"/>
     <path d="m93.067001,24.607c0.379997,0.642 0.747002,1.292 1.098999,1.952c-0.351997,-0.66 -0.719002,-1.309999 -1.098999,-1.952z"/>
     <path d="m82.092003,88.333c-0.593002,0.497002 -1.197998,0.978996 -1.814003,1.448997c0.615997,-0.468994 1.221001,-0.950996 1.814003,-1.448997z"/>
     <path d="m91.791,22.561001c0.420998,0.638 0.826996,1.285999 1.218002,1.944c-0.391006,-0.658001 -0.798004,-1.306002 -1.218002,-1.944z"/>
     <path d="m80.238998,89.813004c-8.205002,6.237 -18.396999,9.998001 -29.459999,10.167999c11.065002,-0.170006 21.254997,-3.927002 29.459999,-10.167999z"/>
     <path d="m97.774002,64.791c-0.140999,0.454002 -0.299004,0.899002 -0.452003,1.348c0.153999,-0.448997 0.312004,-0.893997 0.452003,-1.348z"/>
     <path d="m9.576,79.414001c-0.46,-0.632004 -0.906,-1.273003 -1.337,-1.927002c0.429999,0.653 0.875999,1.294998 1.337,1.927002z"/>
     <path d="m88.989998,18.715c0.489998,0.610001 0.967003,1.230999 1.428001,1.864c-0.460999,-0.633001 -0.937996,-1.253 -1.428001,-1.864z"/>
     <path d="m2.781,66.445c-0.207,-0.594002 -0.41,-1.187996 -0.595,-1.791c0.186,0.601997 0.389,1.196999 0.595,1.791z"/>
     <path d="m96.997002,67.098999c-0.170998,0.471001 -0.360001,0.933998 -0.545998,1.398003c0.185997,-0.464005 0.374992,-0.927002 0.545998,-1.398003z"/>
     <path d="m96.113998,69.352997c-0.204002,0.483002 -0.425003,0.958 -0.642998,1.434998c0.218002,-0.476997 0.439003,-0.951996 0.642998,-1.434998z"/>
     <path d="m90.431999,20.599001c0.457001,0.625999 0.899002,1.264 1.328003,1.913c-0.428001,-0.649 -0.871002,-1.286001 -1.328003,-1.913z"/>
     <path d="m2.009,64.026001c-0.165,-0.563 -0.329,-1.129002 -0.474,-1.701c0.145,0.571999 0.309,1.135998 0.474,1.701z"/>
     <path d="m0.818,58.969002c-0.087,-0.480999 -0.18,-0.960999 -0.253,-1.445999c0.073,0.484997 0.165,0.964996 0.253,1.445999z"/>
     <path d="m92.852997,75.767998c-0.311996,0.517998 -0.639999,1.024002 -0.971001,1.529999c0.331001,-0.505997 0.659004,-1.011993 0.971001,-1.529999z"/>
     <path d="m91.571999,77.781998c-0.350998,0.523003 -0.717003,1.035004 -1.085999,1.544998c0.369003,-0.509995 0.736,-1.021996 1.085999,-1.544998z"/>
     <path d="m95.125999,71.552002c-0.237999,0.497002 -0.493004,0.984001 -0.746002,1.472c0.253006,-0.487 0.508003,-0.974998 0.746002,-1.472z"/>
     <path d="m96.337997,31.215c0.248001,0.612999 0.489998,1.229 0.715996,1.853001c-0.224991,-0.625 -0.467995,-1.240002 -0.715996,-1.853001z"/>
     <path d="m99.181999,41.032001c0.087997,0.480999 0.181,0.959999 0.253998,1.445999c-0.073997,-0.486 -0.166,-0.965 -0.253998,-1.445999z"/>
     <path d="m97.222,33.566002c0.206001,0.589001 0.406998,1.181 0.591003,1.779999c-0.184006,-0.598999 -0.385002,-1.190002 -0.591003,-1.779999z"/>
     <path d="m97.994003,35.986c0.164001,0.561001 0.325996,1.120998 0.471001,1.688999c-0.144005,-0.568001 -0.307007,-1.128998 -0.471001,-1.688999z"/>
     <path d="m90.202003,79.725998c-0.390999,0.527 -0.796997,1.042999 -1.207001,1.554001c0.409996,-0.512001 0.816994,-1.027 1.207001,-1.554001z"/>
     <path d="m88.742996,81.599998c-0.431,0.527 -0.875999,1.042 -1.327003,1.551003c0.451004,-0.509003 0.896004,-1.024002 1.327003,-1.551003z"/>
     <path d="m94.254997,26.733c0.336998,0.639 0.662003,1.284 0.972,1.938c-0.308998,-0.653999 -0.634995,-1.299 -0.972,-1.938z"/>
     <path d="m0.137,53.518002c-0.022,-0.324001 -0.056,-0.645 -0.072,-0.971001c0.016,0.327 0.049,0.646999 0.072,0.971001z"/>
     <path d="m0.412,56.32c-0.053,-0.421001 -0.115,-0.84 -0.158,-1.264c0.042,0.424 0.104,0.842999 0.158,1.264z"/>
     <path d="m83.872002,86.768997c-0.554001,0.511002 -1.120003,1.006996 -1.695999,1.491997c0.575996,-0.484993 1.141998,-0.980995 1.695999,-1.491997z"/>
     <path d="m95.347,28.938c0.292999,0.628 0.577003,1.262001 0.844002,1.905001c-0.266998,-0.643 -0.551003,-1.277 -0.844002,-1.905001z"/>
     <path d="m94.038002,73.691002c-0.275002,0.511002 -0.567001,1.012001 -0.860001,1.511002c0.292999,-0.499001 0.584999,-1 0.860001,-1.511002z"/>
     <path d="m99.862999,46.481998c0.022003,0.324001 0.056,0.646 0.071999,0.971001c-0.015999,-0.325001 -0.048996,-0.646 -0.071999,-0.971001z"/>
     <path d="m99.588997,43.681c0.053001,0.421001 0.113998,0.84 0.156998,1.264c-0.042992,-0.424 -0.103996,-0.841999 -0.156998,-1.264z"/>
     <path d="m3.003,32.901001c0.168,-0.463001 0.355,-0.917 0.537,-1.374001c-0.182,0.455999 -0.369,0.910999 -0.537,1.374001z"/>
     <path d="m2.226,35.209c0.138,-0.446999 0.294,-0.885998 0.445,-1.327999c-0.15,0.443001 -0.307,0.881001 -0.445,1.327999z"/>
     <path d="m6.938,75.403999c-0.382,-0.646004 -0.751,-1.300003 -1.105,-1.963997c0.354,0.663994 0.723,1.318001 1.105,1.963997z"/>
     <path d="m83.996002,86.652c0.275002,-0.255997 0.545998,-0.516998 0.816002,-0.778l-0.006004,-0.006004c-0.268997,0.261002 -0.534996,0.528008 -0.809998,0.784004z"/>
     <path d="m98.650002,38.478001c0.124001,0.522999 0.25,1.046001 0.356003,1.575001c-0.106003,-0.529003 -0.232002,-1.052002 -0.356003,-1.575001z"/>
     <path d="m3.887,30.646c0.201,-0.478001 0.419,-0.945999 0.634,-1.416c-0.215,0.470001 -0.434,0.938 -0.634,1.416z"/>
     <path d="m4.875,28.447001c0.236,-0.494001 0.49,-0.978001 0.742,-1.462c-0.253,0.484999 -0.506,0.969 -0.742,1.462z"/>
     <path d="m99.429001,57.578999c-0.060997,0.395 -0.139,0.782001 -0.208,1.174c0.069,-0.391998 0.146996,-0.779999 0.208,-1.174z"/>
     <path d="m0.256,44.911999c0.036,-0.352001 0.089,-0.697998 0.132,-1.048c-0.042,0.349003 -0.096,0.696003 -0.132,1.048z"/>
     <path d="m99.742996,55.089001c-0.035004,0.355999 -0.090004,0.707001 -0.133003,1.062c0.043007,-0.355 0.097008,-0.705002 0.133003,-1.062z"/>
     <path d="m98.992996,60.027c-0.084,0.414001 -0.188004,0.820999 -0.280998,1.23c0.094002,-0.409 0.196999,-0.815998 0.280998,-1.23z"/>
     <path d="m0.571,42.422001c0.06,-0.389999 0.137,-0.772999 0.206,-1.16c-0.069,0.386997 -0.146,0.77 -0.206,1.16z"/>
     <path d="m99.935997,52.561001c-0.015999,0.295002 -0.046997,0.585999 -0.066002,0.879002c0.019005,-0.293003 0.050003,-0.584003 0.066002,-0.879002z"/>
     <path d="m1.56,37.568001c0.11,-0.431999 0.239,-0.855999 0.361,-1.283001c-0.122,0.427002 -0.251,0.851002 -0.361,1.283001z"/>
     <path d="m1.007,39.973c0.084,-0.412998 0.187,-0.818001 0.281,-1.227001c-0.095,0.409 -0.197,0.815002 -0.281,1.227001z"/>
     <path d="m85.873001,84.813004c0.448997,-0.463997 0.894997,-0.931999 1.327003,-1.412003c-0.432007,0.479996 -0.878006,0.946999 -1.327003,1.412003l0,0z"/>
     <path d="m4.658,71.074997c-0.295,-0.633003 -0.581,-1.271004 -0.849,-1.917c0.269,0.646004 0.554,1.284004 0.849,1.917z"/>
     <path d="m98.440002,62.432999c-0.111,0.436001 -0.240997,0.862 -0.363998,1.292999c0.122993,-0.431 0.252998,-0.856998 0.363998,-1.292999z"/>
     <path d="m3.666,68.792999c-0.25,-0.614998 -0.493,-1.234001 -0.719,-1.861c0.225,0.627998 0.469,1.246002 0.719,1.861z"/>
     <path d="m5.751,73.278999c-0.339,-0.642998 -0.667,-1.292999 -0.979,-1.952003c0.311,0.659004 0.64,1.309006 0.979,1.952003z"/>
     <path d="m16.003,13.35c-0.275001,0.256 -0.546,0.516 -0.815001,0.776999l0.006001,0.006001c0.269,-0.261001 0.533999,-0.528001 0.809,-0.783z"/>
     <path d="m49.25,0.02c-11.076,0.164 -21.278999,3.922 -29.490999,10.17c8.212,-6.244999 18.415998,-10.007 29.490999,-10.17l0,0z"/>
     <path d="m5.962,26.309c0.272,-0.504 0.56,-0.997999 0.848,-1.490999c-0.288,0.493999 -0.576,0.987 -0.848,1.490999z"/>
     <path d="m8.216,77.452003c-0.422999,-0.642998 -0.833,-1.294998 -1.227,-1.958c0.394,0.662994 0.803,1.314995 1.227,1.958z"/>
     <path d="m14.127,15.188c-0.45,0.464001 -0.895,0.932001 -1.327,1.412001c0.432,-0.48 0.878,-0.948 1.327,-1.412001l0,0z"/>
     <path d="m85.892998,15.208c0.538002,0.556 1.064003,1.122999 1.577003,1.702999c-0.513,-0.578999 -1.039001,-1.146999 -1.577003,-1.702999z"/>
     <path d="m9.799,20.274c0.39,-0.525 0.793,-1.039 1.203,-1.549c-0.41,0.51 -0.814,1.022999 -1.203,1.549z"/>
     <path d="m87.477997,16.92c0.516998,0.584999 1.021004,1.183001 1.511002,1.792c-0.490997,-0.608999 -0.994995,-1.205999 -1.511002,-1.792z"/>
     <path d="m11.257,18.4c0.431,-0.527 0.875,-1.042 1.327,-1.550999c-0.452,0.509998 -0.896,1.023998 -1.327,1.550999z"/>
     <path d="m7.148,24.23c0.31,-0.513 0.634,-1.014999 0.961,-1.515999c-0.326,0.501999 -0.651,1.002998 -0.961,1.515999z"/>
     <path d="m8.428,22.219c0.348,-0.521 0.712,-1.030001 1.08,-1.535999c-0.367001,0.505999 -0.732,1.014999 -1.08,1.535999z"/>
     <path d="m16.128,13.231c0.556999,-0.513 1.126999,-1.013 1.706999,-1.5c-0.58,0.487 -1.15,0.987 -1.706999,1.5z"/>
     <path d="m17.906,11.668c0.597,-0.5 1.205999,-0.986 1.826,-1.458c-0.620001,0.473 -1.229,0.958 -1.826,1.458z"/>
     <path d="m14.253,15.056c-0.042,0.043 -0.084001,0.089001 -0.126,0.132l0.001,0.001c0.042,-0.044 0.083,-0.09 0.125,-0.133z" fill="#000000"/>
     <path d="m85.747002,84.945c0.042,-0.043999 0.083,-0.088997 0.125999,-0.131996l-0.000999,-0.001007c-0.042,0.044006 -0.083,0.089005 -0.125,0.133003z" fill="#000000"/>
     <path d="m50.75,96.982002l0,2c12.963001,-0.195 24.695,-5.431 33.351006,-13.82l-1.415001,-1.415001c-8.293007,8.028999 -19.527004,13.040001 -31.936005,13.235001z"/>
     <path d="m83.75,82.690002l1.416,1.416c8.395996,-8.652 13.620003,-20.391003 13.815002,-33.355l-2,0c-0.195,12.411995 -5.195,23.649998 -13.231003,31.938999z"/>
     <path d="m83.751999,17.309999c8.032997,8.292 13.033997,19.531 13.229004,31.941l2,0c-0.195007,-12.964001 -5.420006,-24.702 -13.814003,-33.355999l-1.415001,1.414999z"/>
     <path d="m16.25,17.311001l-1.416,-1.415999c-8.397,8.650998 -13.62,20.389998 -13.815,33.354999l2,0c0.195,-12.411999 5.195,-23.65 13.231,-31.938999z"/>
     <path d="m3.019,50.75l-2,0c0.196,12.963001 5.42,24.700996 13.815,33.355003l1.415001,-1.414001c-8.034,-8.292 -13.035001,-19.529003 -13.23,-31.941002z"/>
     <path d="m49.25,3.02l0,-2c-12.963001,0.195 -24.695999,5.43 -33.351002,13.82l1.414999,1.414999c8.293003,-8.029999 19.526003,-13.040999 31.936003,-13.234999z"/>
     <path d="m17.309,83.751999l-1.415,1.414001c8.654,8.395996 20.391999,13.619995 33.356,13.815002l0,-2c-12.410999,-0.194 -23.648001,-5.195 -31.941,-13.229004z"/>
     <path d="m4.019,50.75c0.195,12.134998 5.084,23.123001 12.936999,31.233002l31.233,-31.233002l-44.169999,0zm8.981,7.25c-1.105,0 -2,-0.895 -2,-2s0.895,-2 2,-2s2,0.895 2,2s-0.895,2 -2,2zm7,7c-1.105,0 -2,-0.894997 -2,-2s0.895,-2 2,-2s2,0.895 2,2s-0.895,2 -2,2zm9,-7c-1.105,0 -2,-0.895 -2,-2s0.895,-2 2,-2s2,0.895 2,2s-0.895,2 -2,2z"/>
     <path d="m16.957001,18.018c-7.855,8.108 -12.743001,19.097002 -12.938001,31.232l44.171002,0l-31.233002,-31.232zm-3.957001,22.982c-1.105,0 -2,-0.895 -2,-2s0.895,-2 2,-2s2,0.895 2,2s-0.895,2 -2,2z"/>
     <path d="m49.25,48.189999l0,-44.169999c-12.132999,0.194 -23.117001,5.093 -31.229,12.941l31.229,31.228998zm-8.25,-24.189999c1.105,0 2,0.895 2,2s-0.895,2 -2,2s-2,-0.895 -2,-2s0.895,-2 2,-2zm-9,-11c1.105,0 2,0.895 2,2s-0.895,2 -2,2s-2,-0.895 -2,-2s0.895,-2 2,-2z"/>
     <path d="m83.042999,81.983002c7.855003,-8.108002 12.742996,-19.097 12.938004,-31.232002l-44.170002,0l31.231998,31.232002zm0.957001,-17.983002c1.105003,0 2,0.894997 2,2s-0.894997,2 -2,2s-2,-0.894997 -2,-2s0.894997,-2 2,-2zm-5,-9c1.105003,0 2,0.895 2,2s-0.894997,2 -2,2s-2,-0.895 -2,-2s0.894997,-2 2,-2zm-10,5c1.105003,0 2,0.895 2,2s-0.894997,2 -2,2s-2,-0.895 -2,-2s0.894997,-2 2,-2z"/>
     <path d="m50.75,95.982002c12.132999,-0.194 23.117004,-5.094002 31.228996,-12.942001l-31.228996,-31.229l0,44.171001zm12.25,-14.982002c1.105003,0 2,0.894997 2,2s-0.894997,2 -2,2s-2,-0.894997 -2,-2s0.895,-2 2,-2zm-7,-13c1.105,0 2,0.894997 2,2s-0.895,2 -2,2s-2,-0.894997 -2,-2s0.895,-2 2,-2z"/>
     <path d="m83.043999,18.017l-31.232998,31.233l44.171001,0c-0.195999,-12.133999 -5.085999,-23.122 -12.938004,-31.233zm-7.043999,23.983c-1.105003,0 -2,-0.895 -2,-2s0.894997,-2 2,-2s2,0.895 2,2s-0.894997,2 -2,2zm8,-9c-1.105003,0 -2,-0.895 -2,-2s0.894997,-2 2,-2s2,0.895 2,2s-0.894997,2 -2,2z"/>
     <path d="m18.016001,83.043999c8.111,7.852997 19.1,12.741997 31.233999,12.937996l0,-44.170994l-31.233999,31.232998zm11.983999,-1.043999c-1.105,0 -2,-0.894997 -2,-2s0.895,-2 2,-2s2,0.894997 2,2s-0.895,2 -2,2zm12,9c-1.105,0 -2,-0.894997 -2,-2s0.895,-2 2,-2s2,0.894997 2,2s-0.895,2 -2,2z"/>
     <path d="m88.987999,18.712999c0.000999,0.000999 0.001999,0.001999 0.001999,0.001999c0,0.000002 -0.000999,-0.000998 -0.001999,-0.001999z" fill="#000000"/>
     <path d="m91.760002,22.511c0.011002,0.017 0.020996,0.033001 0.030998,0.050001c-0.011002,-0.017 -0.019997,-0.033001 -0.030998,-0.050001z" fill="#000000"/>
     <path d="m87.470001,16.910999c0.001999,0.003 0.004997,0.006001 0.008003,0.008999c-0.003006,-0.002998 -0.006004,-0.004997 -0.008003,-0.008999z" fill="#000000"/>
     <path d="m90.417999,20.579c0.004997,0.005999 0.009003,0.012999 0.014,0.02c-0.004997,-0.007002 -0.009003,-0.014002 -0.014,-0.02z" fill="#000000"/>
     <path d="m99.746002,44.945c0.051003,0.508999 0.081001,1.024002 0.116997,1.538002c-0.035995,-0.514 -0.066002,-1.029003 -0.116997,-1.538002z" fill="#000000"/>
     <path d="m99.435997,42.478001c0.060997,0.397999 0.102997,0.802002 0.153,1.202999c-0.050995,-0.401001 -0.092995,-0.805 -0.153,-1.202999z" fill="#000000"/>
     <path d="m97.054001,33.067001c0.058998,0.165001 0.110001,0.333 0.167999,0.499001c-0.057999,-0.166 -0.110001,-0.334003 -0.167999,-0.499001z" fill="#000000"/>
     <path d="m97.811996,35.346001c0.065002,0.210999 0.120003,0.427002 0.181999,0.639999c-0.060997,-0.213001 -0.115997,-0.428001 -0.181999,-0.639999z" fill="#000000"/>
     <path d="m96.190002,30.841999c0.052002,0.122999 0.097,0.249001 0.147003,0.372999c-0.050003,-0.123999 -0.095009,-0.249998 -0.147003,-0.372999z" fill="#000000"/>
     <path d="m99.007004,40.053001c0.065002,0.324001 0.115997,0.653 0.175003,0.979c-0.059006,-0.326 -0.110008,-0.655003 -0.175003,-0.979z" fill="#000000"/>
     <path d="m95.226997,28.672001c0.042,0.087999 0.079002,0.177 0.120003,0.266001c-0.041,-0.089001 -0.078003,-0.178001 -0.120003,-0.266001z" fill="#000000"/>
     <path d="m99.981003,49.25c-0.009003,-0.601002 -0.015999,-1.202 -0.045998,-1.797001c0.030998,0.596001 0.037994,1.197002 0.045998,1.797001l0,0z" fill="#000000"/>
     <path d="m98.464996,37.674999c0.067001,0.265999 0.122002,0.535999 0.185997,0.803001c-0.063995,-0.268002 -0.118996,-0.538002 -0.185997,-0.803001z" fill="#000000"/>
     <path d="m94.166,26.559c0.029999,0.058001 0.058998,0.115999 0.088997,0.174c-0.029999,-0.056999 -0.058998,-0.115999 -0.088997,-0.174z" fill="#000000"/>
     <path d="m93.009003,24.504999c0.021004,0.034 0.039001,0.067999 0.058998,0.101999c-0.020004,-0.033998 -0.039001,-0.067999 -0.058998,-0.101999z" fill="#000000"/>
     <path d="m50.75,99.982002c0.009998,0 0.02,-0.000999 0.028999,-0.000999c-0.008999,0 -0.019001,0 -0.028999,0.000999l0,0z" fill="#000000"/>
     <path d="m88.995003,81.279999c-0.084999,0.105003 -0.166,0.215004 -0.251999,0.32c0.085999,-0.104996 0.167,-0.214996 0.251999,-0.32z" fill="#000000"/>
     <path d="m99.935997,52.561001c0.029999,-0.599998 0.037003,-1.204998 0.045998,-1.811001l0,0c-0.009995,0.605999 -0.015991,1.210999 -0.045998,1.811001z" fill="#000000"/>
     <path d="m97.321999,66.138c-0.108002,0.32 -0.209,0.643997 -0.324997,0.960999c0.115997,-0.317001 0.216995,-0.640999 0.324997,-0.960999z" fill="#000000"/>
     <path d="m90.486,79.327003c-0.097,0.131996 -0.188004,0.267998 -0.283997,0.399002c0.097,-0.132004 0.187996,-0.268005 0.283997,-0.399002z" fill="#000000"/>
     <path d="m99.610001,56.151001c-0.058998,0.477001 -0.110001,0.955002 -0.181999,1.428001c0.071999,-0.473003 0.124001,-0.952003 0.181999,-1.428001z" fill="#000000"/>
     <path d="m83.996002,86.652c-0.042,0.038002 -0.082001,0.079002 -0.124001,0.116997c0.042,-0.037994 0.082001,-0.078995 0.124001,-0.116997z" fill="#000000"/>
     <path d="m87.416,83.151001c-0.072998,0.083 -0.142998,0.167999 -0.216003,0.25c0.073006,-0.082001 0.143005,-0.167 0.216003,-0.25z" fill="#000000"/>
     <path d="m82.176003,88.261002c-0.028,0.024002 -0.056,0.049004 -0.084,0.071999c0.028,-0.023003 0.055,-0.047997 0.084,-0.071999z" fill="#000000"/>
     <path d="m85.892998,15.208c-0.006996,-0.006001 -0.013,-0.014 -0.019997,-0.021l0,0c0.005997,0.007999 0.013,0.014999 0.019997,0.021z" fill="#000000"/>
     <path d="m94.379997,73.024002c-0.114998,0.222 -0.223999,0.446999 -0.342003,0.667c0.118004,-0.220001 0.227005,-0.445 0.342003,-0.667z" fill="#000000"/>
     <path d="m91.882004,77.297997c-0.103996,0.160004 -0.203003,0.323997 -0.309998,0.483002c0.106995,-0.157997 0.204994,-0.322998 0.309998,-0.483002z" fill="#000000"/>
     <path d="m95.472,70.788002c-0.115997,0.253998 -0.225998,0.513 -0.346001,0.764999c0.120003,-0.252998 0.229004,-0.511002 0.346001,-0.764999z" fill="#000000"/>
     <path d="m96.450996,68.498001c-0.112999,0.283997 -0.219002,0.572998 -0.336998,0.855003c0.118004,-0.282005 0.223999,-0.571007 0.336998,-0.855003z" fill="#000000"/>
     <path d="m93.178001,75.202003c-0.109001,0.187996 -0.212997,0.379997 -0.324997,0.566002c0.111992,-0.186005 0.214996,-0.378006 0.324997,-0.566002z" fill="#000000"/>
     <path d="m98.075996,63.726002c-0.100998,0.354 -0.193001,0.713001 -0.302002,1.063999c0.109009,-0.350998 0.202003,-0.709 0.302002,-1.063999z" fill="#000000"/>
     <path d="m99.221001,58.751999c-0.074997,0.424999 -0.141998,0.854 -0.227997,1.273998c0.085999,-0.419998 0.153,-0.848999 0.227997,-1.273998z" fill="#000000"/>
     <path d="m80.277,89.782997c-0.013,0.010002 -0.025002,0.020996 -0.038002,0.029999c0.013,-0.009995 0.026001,-0.020996 0.038002,-0.029999z" fill="#000000"/>
     <path d="m99.869003,53.439999c-0.037003,0.550999 -0.07,1.104 -0.125999,1.649002c0.056,-0.546001 0.087997,-1.098 0.125999,-1.649002z" fill="#000000"/>
     <path d="m98.711998,61.257c-0.091003,0.393002 -0.171997,0.786999 -0.271004,1.175999c0.099007,-0.389 0.180008,-0.782997 0.271004,-1.175999z" fill="#000000"/>
     <path d="m84.100998,85.162003c-8.654999,8.389999 -20.388,13.625 -33.351002,13.82l0,1c0.009998,-0.000999 0.02,-0.000999 0.028999,-0.000999c11.062,-0.169998 21.255001,-3.931 29.460003,-10.167999c0.012993,-0.010002 0.024994,-0.021004 0.037994,-0.029999c0.616005,-0.470001 1.222,-0.952003 1.814003,-1.449005c0.028,-0.022995 0.056,-0.047997 0.084,-0.071999c0.575996,-0.485001 1.142998,-0.981003 1.695999,-1.491997c0.042,-0.038002 0.082001,-0.079002 0.124001,-0.117004c0.275002,-0.255997 0.541,-0.521996 0.810997,-0.783997l-0.704994,-0.707001z"/>
     <path d="m85.167,15.895c8.394997,8.654001 13.619003,20.392002 13.814003,33.355999l1,0c-0.009003,-0.601002 -0.016006,-1.202 -0.046005,-1.797001c-0.016998,-0.326 -0.049995,-0.646999 -0.071999,-0.970997c-0.035995,-0.513004 -0.066002,-1.028 -0.116997,-1.538002c-0.042999,-0.424 -0.104004,-0.841999 -0.157005,-1.264c-0.050995,-0.401001 -0.092995,-0.805 -0.153,-1.202999c-0.072998,-0.486 -0.166,-0.965 -0.253998,-1.445999c-0.058998,-0.326004 -0.109001,-0.655003 -0.174995,-0.979004c-0.106003,-0.528999 -0.232002,-1.051998 -0.356003,-1.574997c-0.063004,-0.268002 -0.118004,-0.538002 -0.186005,-0.803001c-0.144997,-0.568001 -0.306999,-1.128002 -0.470993,-1.688999c-0.062004,-0.212002 -0.116005,-0.428001 -0.182007,-0.639999c-0.183998,-0.600002 -0.384995,-1.191002 -0.590996,-1.780003c-0.057999,-0.166 -0.109001,-0.334 -0.167999,-0.499001c-0.225998,-0.623997 -0.468002,-1.239998 -0.716003,-1.852999c-0.050995,-0.124001 -0.096001,-0.25 -0.146996,-0.372999c-0.267006,-0.643002 -0.551003,-1.276001 -0.844002,-1.905001c-0.041,-0.087999 -0.078003,-0.177999 -0.120003,-0.266001c-0.309998,-0.653999 -0.634995,-1.299999 -0.972,-1.938c-0.029999,-0.057999 -0.058998,-0.116999 -0.088997,-0.174c-0.351997,-0.66 -0.719002,-1.310999 -1.098999,-1.952c-0.020004,-0.034 -0.038002,-0.068001 -0.058998,-0.101999c-0.391006,-0.658001 -0.797005,-1.306002 -1.218002,-1.944c-0.011002,-0.017 -0.021004,-0.033001 -0.030998,-0.050001c-0.429001,-0.647999 -0.871002,-1.285999 -1.328003,-1.913c-0.004997,-0.005999 -0.009003,-0.012999 -0.014,-0.019999c-0.460999,-0.632 -0.938004,-1.254 -1.428001,-1.864c0,0 -0.000999,-0.001001 -0.001999,-0.002001c-0.489998,-0.608999 -0.994003,-1.206999 -1.511002,-1.792c-0.002998,-0.003 -0.005997,-0.006001 -0.007996,-0.008999c-0.513,-0.58 -1.039001,-1.147001 -1.577003,-1.703001c-0.006996,-0.006 -0.014,-0.014 -0.019997,-0.02l-0.703003,0.708001z"/>
     <path d="m98.981003,50.75c-0.195,12.965 -5.418999,24.702995 -13.815002,33.355003l0.706001,0.705994c0.450005,-0.463997 0.896004,-0.931 1.328003,-1.410995c0.072998,-0.082001 0.142998,-0.167 0.215996,-0.25c0.451004,-0.509003 0.896004,-1.023003 1.327003,-1.551003c0.085999,-0.105003 0.167,-0.214996 0.251999,-0.32c0.410004,-0.511002 0.816002,-1.026001 1.207001,-1.554001c0.097,-0.131996 0.187996,-0.267998 0.283997,-0.399002c0.369003,-0.509995 0.735001,-1.020996 1.086006,-1.544998c0.105995,-0.158997 0.204994,-0.322998 0.309998,-0.483002c0.331001,-0.505997 0.658997,-1.013 0.971001,-1.529999c0.112,-0.186996 0.215996,-0.377998 0.324997,-0.566002c0.292999,-0.499001 0.584999,-1 0.860001,-1.510994c0.118004,-0.220001 0.226997,-0.445 0.342003,-0.667c0.252998,-0.487 0.507996,-0.975006 0.745995,-1.472c0.120003,-0.252007 0.229004,-0.511002 0.346001,-0.764999c0.218002,-0.477005 0.438004,-0.951004 0.643005,-1.435005c0.117996,-0.281998 0.223999,-0.570999 0.336998,-0.854996c0.185997,-0.465004 0.375,-0.928001 0.545998,-1.398003c0.116005,-0.317001 0.217003,-0.640999 0.325005,-0.960999c0.153,-0.447998 0.311996,-0.894005 0.451996,-1.348c0.108002,-0.352005 0.201004,-0.709999 0.302002,-1.064003c0.123001,-0.431 0.252998,-0.856998 0.363998,-1.292999c0.099998,-0.389 0.181,-0.783001 0.271004,-1.175999c0.094002,-0.409 0.196999,-0.816002 0.280998,-1.23c0.085999,-0.421001 0.152,-0.850002 0.227997,-1.274002c0.069,-0.391998 0.147003,-0.778999 0.208,-1.174c0.071007,-0.473 0.123001,-0.951 0.182007,-1.428001c0.042999,-0.354 0.098,-0.704998 0.132996,-1.061996c0.056,-0.546001 0.089005,-1.099003 0.125999,-1.649002c0.020004,-0.292999 0.051003,-0.584 0.066002,-0.878998c0.029999,-0.600002 0.036003,-1.205002 0.045998,-1.811001l-1.000999,0z"/>
     <path d="m85.747002,84.945c-0.057999,0.059998 -0.112999,0.121002 -0.171997,0.18c0.058998,-0.058998 0.113998,-0.121002 0.171997,-0.18z" fill="#000000"/>
     <polygon points="15.188,85.874 15.197,85.882 15.188,85.874   " fill="#000000"/>
     <path d="m49.25,99.982002l0,0c-0.009998,-0.000999 -0.019001,-0.000999 -0.028999,-0.000999c0.009998,0 0.019001,0.000999 0.028999,0.000999z" fill="#000000"/>
     <path d="m15.894,85.167l-0.707,0.707001c0.002999,0.002998 0.006,0.005997 0.009999,0.009003c8.828,8.563995 20.801002,13.894997 34.023997,14.098999c0.010002,0 0.019001,0 0.028999,0.000999l0,-1c-12.963997,-0.195999 -24.701996,-5.421005 -33.355996,-13.816002z"/>
     <path d="m0.019,50.75c0.009,0.601002 0.016,1.201 0.046,1.797001c-0.03,-0.595001 -0.037,-1.195999 -0.046,-1.797001l0,0z" fill="#000000"/>
     <path d="m8.11,22.715c0.107,-0.165001 0.209001,-0.333 0.318001,-0.496c-0.109,0.163 -0.211,0.330999 -0.318001,0.496z" fill="#000000"/>
     <polygon points="14.118,84.803 14.127,84.813 14.127,84.813   " fill="#000000"/>
     <path d="m5.616,26.985001c0.117,-0.225 0.226,-0.454 0.346,-0.675999c-0.12,0.222998 -0.229,0.451998 -0.346,0.675999z" fill="#000000"/>
     <path d="m6.811,24.818001c0.114,-0.195 0.222,-0.393999 0.338,-0.587c-0.117,0.192999 -0.224,0.391998 -0.338,0.587z" fill="#000000"/>
     <path d="m12.584,16.85c0.073,-0.083 0.143001,-0.167 0.216001,-0.25c-0.073,0.081999 -0.143001,0.167 -0.216001,0.25z" fill="#000000"/>
     <path d="m9.508,20.683001c0.098,-0.136 0.191,-0.275 0.290999,-0.409c-0.099999,0.134001 -0.193,0.273001 -0.290999,0.409z" fill="#000000"/>
     <path d="m19.732,10.21c0.008999,-0.007 0.018,-0.014 0.025999,-0.021c-0.007999,0.007 -0.017,0.015 -0.025999,0.021z" fill="#000000"/>
     <path d="m0.065,47.438999c-0.03,0.599998 -0.037,1.206001 -0.046,1.811001l0,0c0.009,-0.605 0.016,-1.209999 0.046,-1.811001z" fill="#000000"/>
     <path d="m17.834999,11.73c0.024,-0.02 0.046999,-0.042 0.070999,-0.061999c-0.023998,0.021 -0.046999,0.042 -0.070999,0.061999z" fill="#000000"/>
     <path d="m2.671,33.882c0.111,-0.327 0.214,-0.657001 0.332,-0.980999c-0.118,0.323997 -0.221,0.653999 -0.332,0.980999z" fill="#000000"/>
     <path d="m16.003,13.35c0.042,-0.039001 0.083,-0.08 0.125,-0.119c-0.043001,0.039001 -0.083,0.08 -0.125,0.119z" fill="#000000"/>
     <path d="m3.54,31.527c0.117,-0.293001 0.225,-0.59 0.347,-0.881001c-0.122,0.291 -0.231,0.587999 -0.347,0.881001z" fill="#000000"/>
     <path d="m11.002,18.725c0.086,-0.107 0.168,-0.218 0.255,-0.325001c-0.087,0.107 -0.169,0.218 -0.255,0.325001z" fill="#000000"/>
     <path d="m4.521,29.23c0.119,-0.26 0.23,-0.525 0.354,-0.782999c-0.124,0.257999 -0.235,0.522999 -0.354,0.782999z" fill="#000000"/>
     <path d="m0.993,59.948002c-0.065,-0.324001 -0.116,-0.652 -0.175,-0.979c0.059,0.324997 0.109,0.654999 0.175,0.979z" fill="#000000"/>
     <path d="m4.772,71.327003c-0.04,-0.083 -0.075,-0.167999 -0.114,-0.251999c0.039,0.083992 0.074,0.168999 0.114,0.251999z" fill="#000000"/>
     <path d="m0.564,57.522999c-0.06,-0.397999 -0.102,-0.801998 -0.153,-1.202999c0.051,0.401001 0.093,0.805 0.153,1.202999z" fill="#000000"/>
     <path d="m1.535,62.325001c-0.066,-0.262001 -0.121,-0.528999 -0.183,-0.792999c0.062,0.262997 0.116,0.530998 0.183,0.792999z" fill="#000000"/>
     <path d="m0.388,43.863998c0.059,-0.480999 0.111,-0.964001 0.183,-1.441002c-0.072,0.476002 -0.124,0.960003 -0.183,1.441002z" fill="#000000"/>
     <path d="m9.579,79.417999c-0.001,-0.001999 -0.002001,-0.003998 -0.003,-0.004997c0.000999,0.001999 0.002,0.003998 0.003,0.004997z" fill="#000000"/>
     <path d="m8.238,77.487c-0.007,-0.012001 -0.015,-0.023003 -0.022,-0.034996c0.008,0.010994 0.015,0.022995 0.022,0.034996z" fill="#000000"/>
     <path d="m2.187,64.653999c-0.063,-0.208 -0.117,-0.418999 -0.178,-0.627998c0.06,0.209 0.114,0.420998 0.178,0.627998z" fill="#000000"/>
     <path d="m2.946,66.931999c-0.058,-0.161003 -0.109,-0.325996 -0.165,-0.487c0.056,0.161003 0.107,0.326004 0.165,0.487z" fill="#000000"/>
     <path d="m0.13,46.57c0.038,-0.554001 0.071,-1.109001 0.126,-1.658001c-0.055,0.548 -0.088,1.104 -0.126,1.658001z" fill="#000000"/>
     <path d="m0.254,55.056c-0.051,-0.508999 -0.081,-1.023998 -0.117,-1.537998c0.036,0.514 0.066,1.028999 0.117,1.537998z" fill="#000000"/>
     <path d="m5.833,73.440002c-0.028,-0.054001 -0.054,-0.107002 -0.082,-0.161003c0.028,0.054001 0.054,0.107002 0.082,0.161003z" fill="#000000"/>
     <path d="m3.809,69.157997c-0.05,-0.120003 -0.095,-0.243004 -0.144,-0.363998c0.05,0.121002 0.094,0.244003 0.144,0.363998z" fill="#000000"/>
     <path d="m1.92,36.285c0.102,-0.357998 0.196,-0.720001 0.306,-1.075001c-0.11,0.354 -0.204,0.716 -0.306,1.075001z" fill="#000000"/>
     <path d="m1.288,38.745998c0.09,-0.393002 0.172,-0.789001 0.272,-1.178001c-0.1,0.389004 -0.182,0.785004 -0.272,1.178001z" fill="#000000"/>
     <path d="m6.989,75.494003c-0.018,-0.028999 -0.034,-0.059998 -0.051,-0.090004c0.018,0.029999 0.034,0.059998 0.051,0.090004z" fill="#000000"/>
     <path d="m0.777,41.262001c0.076,-0.43 0.144,-0.862999 0.23,-1.289001c-0.087,0.425999 -0.154,0.859001 -0.23,1.289001z" fill="#000000"/>
     <path d="m14.833,84.106003c-8.395,-8.653999 -13.619,-20.393002 -13.814,-33.356003l-1,0c0.009,0.601002 0.016,1.201 0.045,1.797001c0.016,0.326 0.05,0.646 0.072,0.971001c0.036,0.514 0.066,1.028999 0.117,1.537998c0.042,0.424 0.104,0.842999 0.158,1.264c0.051,0.401001 0.093,0.805 0.153,1.202999c0.073,0.485001 0.166,0.965 0.253,1.446003c0.059,0.325996 0.109,0.653999 0.175,0.979c0.108,0.531998 0.234,1.057999 0.359,1.584c0.062,0.264 0.117,0.530998 0.183,0.792999c0.145,0.571999 0.309,1.138 0.474,1.701c0.061,0.209 0.114,0.419998 0.178,0.627998c0.185,0.603004 0.388,1.196999 0.595,1.791c0.056,0.161003 0.107,0.326004 0.165,0.487c0.226,0.626999 0.469,1.246002 0.719,1.861c0.049,0.121002 0.093,0.244003 0.144,0.363998c0.269,0.646004 0.554,1.284004 0.849,1.917c0.039,0.084 0.074,0.168999 0.114,0.251999c0.312,0.659004 0.64,1.310005 0.979,1.952003c0.028,0.054001 0.054,0.107002 0.082,0.161003c0.354,0.663994 0.723,1.318001 1.105,1.963997c0.018,0.029999 0.034,0.060997 0.051,0.089996c0.394,0.663002 0.803,1.315002 1.227,1.958c0.008,0.012001 0.015,0.023003 0.022,0.035004c0.431,0.653 0.877,1.294998 1.337,1.927002c0.001,0.000999 0.002,0.002998 0.003,0.004997c1.387,1.900002 2.904,3.699997 4.539,5.385002c0.003,0.002998 0.006001,0.006996 0.009001,0.010002l0.707,-0.707001z"/>
     <path d="m1.019,49.25c0.196,-12.965 5.418,-24.704 13.815,-33.355l-0.705999,-0.706c-0.45,0.463 -0.896,0.931001 -1.328,1.411c-0.073,0.082001 -0.143001,0.167 -0.216001,0.25c-0.452,0.509001 -0.896,1.024 -1.327,1.550999c-0.087,0.107002 -0.169,0.217003 -0.255,0.325003c-0.41,0.509998 -0.813,1.022999 -1.203,1.549c-0.099999,0.133999 -0.193001,0.272999 -0.291,0.409c-0.367001,0.505999 -0.731001,1.014999 -1.08,1.535999c-0.109,0.163 -0.211,0.332001 -0.318001,0.496c-0.327,0.500999 -0.651999,1.003 -0.960999,1.515999c-0.116,0.193001 -0.224,0.393002 -0.338,0.587c-0.288,0.494001 -0.576,0.987001 -0.848,1.491001c-0.12,0.223 -0.229,0.451 -0.346,0.675999c-0.252,0.484001 -0.505,0.968 -0.742,1.462002c-0.123999,0.256998 -0.234999,0.521997 -0.353999,0.781998c-0.215,0.470001 -0.433,0.938 -0.634,1.416c-0.122,0.291 -0.23,0.587999 -0.347,0.881001c-0.182,0.456999 -0.368,0.910999 -0.537,1.374001c-0.118,0.323997 -0.221,0.653999 -0.332,0.980999c-0.15,0.442001 -0.307,0.880001 -0.445,1.327999c-0.11,0.355 -0.204,0.717003 -0.306,1.075001c-0.122,0.427002 -0.25,0.852001 -0.361,1.283001c-0.1,0.389 -0.182,0.785 -0.272,1.177998c-0.094,0.409 -0.197,0.814003 -0.281,1.227001c-0.086,0.425999 -0.154,0.859001 -0.23,1.289001c-0.068,0.386997 -0.146,0.77 -0.206,1.16c-0.072,0.476997 -0.124,0.959999 -0.183,1.440998c-0.042,0.350002 -0.096,0.695999 -0.132,1.048c-0.054,0.549 -0.087,1.105 -0.125,1.659c-0.02,0.291 -0.051,0.577999 -0.065,0.869999c-0.03,0.600002 -0.037,1.206001 -0.046,1.811001l1,0l0,-0.000999z"/>
     <path d="m15.899,14.839c8.655001,-8.39 20.387999,-13.624 33.351,-13.819l0,-1c-11.075001,0.164 -21.278999,3.926 -29.490999,10.17c-0.008999,0.007 -0.018,0.014001 -0.025999,0.021001c-0.620001,0.471999 -1.229,0.957999 -1.826,1.457999c-0.024,0.021002 -0.047001,0.042001 -0.071001,0.062c-0.58,0.488 -1.15,0.988 -1.706999,1.5c-0.042,0.039001 -0.083,0.08 -0.125,0.119c-0.275001,0.254999 -0.540001,0.521 -0.81,0.783l0.704999,0.705999z"/>
     <polygon points="50,0 50,0 50,0   "/>
     <path d="m49.25,0l0,0.02c0.25,-0.004 0.498001,-0.02 0.75,-0.02l-0.75,0z"/>
     <path d="m50,0c0,0 0,0 0,0c-0.251999,0 -0.5,0.015 -0.75,0.019l0,0c0.25,-0.003 0.499001,-0.019 0.75,-0.019z"/>
     <path d="m50.75,0.02l0,-0.02l-0.75,0c0.040001,0 0.080002,0.002 0.119999,0.003c0.211002,0.001 0.420002,0.013 0.630001,0.017z"/>
     <path d="m50.75,0.02l0,0c-0.209999,-0.003 -0.418999,-0.016 -0.630001,-0.016c0.211002,0.003 0.420002,0.012 0.630001,0.016z"/>
     <path d="m50.119999,0.003c-0.039997,0 -0.079998,-0.003 -0.119999,-0.003l0,0c0.040001,0 0.080002,0.003 0.119999,0.003z" fill="#000000"/>
     <polygon points="15.182,85.868 15.188,85.874 15.188,85.874   " fill="#000000"/>
     <polygon points="85.873,15.188 85.873,15.188 85.861,15.176   " fill="#000000"/>
     <polygon points="84.812,14.127 84.812,14.128 84.824,14.14   " fill="#000000"/>
    </g>
   </g>
   <g>
    <g>
     <path d="m5.75,26.722c0.338,-0.641001 0.69,-1.271999 1.055,-1.896c-0.364,0.624001 -0.717,1.256001 -1.055,1.896z"/>
     <path d="m22.875999,91.994003c-0.533001,-0.345001 -1.059,-0.698997 -1.578001,-1.063004c0.519001,0.362999 1.045002,0.718002 1.578001,1.063004z"/>
     <path d="m6.886,24.687c0.379,-0.643 0.772,-1.277 1.178,-1.901001c-0.406,0.624001 -0.8,1.257 -1.178,1.901001z"/>
     <path d="m8.11,22.712999c0.418,-0.639999 0.85,-1.27 1.296,-1.889c-0.445,0.620001 -0.878,1.249001 -1.296,1.889z"/>
     <path d="m19.184,89.359001c-0.542999,-0.427002 -1.08,-0.862 -1.605,-1.310997c0.525999,0.448997 1.060999,0.883995 1.605,1.310997z"/>
     <path d="m4.708,28.813999c0.297,-0.632 0.608,-1.256001 0.93,-1.873001c-0.322,0.618002 -0.634,1.241001 -0.93,1.873001z"/>
     <path d="m70.114998,4.225c0.892998,0.393 1.771004,0.813 2.636002,1.256c-0.864998,-0.443 -1.741997,-0.863 -2.636002,-1.256z"/>
     <path d="m2.911,33.172001c0.214,-0.598999 0.444,-1.190001 0.681,-1.778c-0.237,0.587999 -0.467,1.179001 -0.681,1.778z"/>
     <path d="m20.996,90.713997c-0.540001,-0.385002 -1.072001,-0.778999 -1.595001,-1.185997c0.523001,0.406998 1.055,0.802002 1.595001,1.185997z"/>
     <path d="m3.761,30.966c0.254,-0.618 0.524,-1.226999 0.803,-1.831999c-0.278,0.605 -0.549,1.213999 -0.803,1.831999z"/>
     <path d="m24.822001,93.192001c-0.522999,-0.306999 -1.041,-0.621002 -1.552,-0.945c0.511999,0.323997 1.028999,0.638 1.552,0.945z"/>
     <path d="m53.598999,0.143c0.758999,0.055 1.514,0.122 2.263,0.21c-0.75,-0.087 -1.505001,-0.156 -2.263,-0.21z"/>
     <path d="m33.235001,97.110001c-0.461998,-0.165001 -0.918999,-0.341003 -1.375,-0.518997c0.456001,0.177994 0.911999,0.354996 1.375,0.518997z"/>
     <path d="m35.484001,97.851997c-0.441002,-0.135002 -0.876999,-0.279999 -1.313,-0.426003c0.434998,0.146004 0.870998,0.291008 1.313,0.426003z"/>
     <path d="m31.042,96.268997c-0.480999,-0.196999 -0.957001,-0.404999 -1.43,-0.616997c0.474001,0.211998 0.949001,0.419998 1.43,0.616997z"/>
     <path d="m56.528999,0.438c0.792999,0.104 1.579998,0.225 2.361,0.366c-0.780998,-0.14 -1.568001,-0.262 -2.361,-0.366z"/>
     <path d="m28.908001,95.333c-0.497999,-0.232002 -0.989,-0.473999 -1.478001,-0.722c0.489,0.249001 0.98,0.490997 1.478001,0.722z"/>
     <path d="m41.542999,0.727c0.449001,-0.077 0.900002,-0.15 1.353001,-0.215c-0.453999,0.064 -0.903999,0.138 -1.353001,0.215z"/>
     <path d="m46.995998,0.098c0.262001,-0.016 0.522999,-0.03 0.786999,-0.042c-0.263996,0.011 -0.525997,0.027 -0.786999,0.042z"/>
     <path d="m26.834,94.306c-0.511,-0.267998 -1.017,-0.544998 -1.518,-0.831001c0.500999,0.285004 1.006001,0.564003 1.518,0.831001z"/>
     <path d="m44.157001,0.351c0.451,-0.053 0.903,-0.1 1.356998,-0.141c-0.453999,0.041 -0.907001,0.088 -1.356998,0.141z"/>
     <path d="m2.163,35.431999c0.175,-0.575001 0.366,-1.141998 0.562,-1.708c-0.196,0.566002 -0.388,1.132999 -0.562,1.708z"/>
     <path d="m1.358,61.561001c-0.122,-0.514999 -0.248,-1.027 -0.354,-1.549c0.106,0.521999 0.232,1.034 0.354,1.549z"/>
     <path d="m7.006,75.522003c-0.369,-0.619003 -0.728,-1.244003 -1.07,-1.880997c0.343,0.636993 0.702,1.261993 1.07,1.880997z"/>
     <path d="m0.819,58.976002c-0.085,-0.467999 -0.177,-0.935001 -0.249,-1.407001c0.072,0.473 0.164,0.938999 0.249,1.407001z"/>
     <path d="m8.3,77.582001c-0.406,-0.612 -0.802,-1.232002 -1.181,-1.863998c0.379,0.630997 0.775,1.250999 1.181,1.863998z"/>
     <path d="m0.411,56.313c-0.052,-0.41 -0.113,-0.815998 -0.155,-1.229c0.042,0.413002 0.103,0.819 0.155,1.229z"/>
     <path d="m5.808,73.389c-0.33,-0.621002 -0.65,-1.247002 -0.954,-1.883003c0.303,0.636002 0.625,1.262001 0.954,1.883003z"/>
     <path d="m4.701,71.167999c-0.287,-0.612999 -0.568,-1.230003 -0.831,-1.856003c0.263,0.627007 0.544,1.243004 0.831,1.856003z"/>
     <path d="m2.807,66.518997c-0.204,-0.582001 -0.406,-1.165001 -0.589,-1.757004c0.182,0.592003 0.385,1.175003 0.589,1.757004z"/>
     <path d="m2.022,64.073997c-0.162,-0.551998 -0.325,-1.104 -0.468,-1.663002c0.144,0.559006 0.307,1.111004 0.468,1.663002z"/>
     <path d="m9.675,79.553001c-0.439,-0.598999 -0.867001,-1.205002 -1.28,-1.822998c0.412999,0.617996 0.841,1.224998 1.28,1.822998z"/>
     <path d="m0.56,42.516998c0.071,-0.474998 0.161,-0.943001 0.246,-1.414001c-0.085,0.471004 -0.175,0.939003 -0.246,1.414001z"/>
     <path d="m0.134,53.486c-0.021,-0.310001 -0.054,-0.615002 -0.069,-0.925999c0.016,0.310997 0.048,0.615997 0.069,0.925999z"/>
     <path d="m0.252,44.971001c0.042,-0.423 0.103,-0.84 0.156,-1.259998c-0.053,0.419998 -0.114,0.836998 -0.156,1.259998z"/>
     <path d="m17.443001,87.931c-0.546,-0.470001 -1.083,-0.948997 -1.608,-1.440002c0.525999,0.491005 1.061998,0.970001 1.608,1.440002z"/>
     <path d="m14.26,84.952003c-0.506001,-0.518997 -1.004001,-1.044998 -1.488,-1.584c0.483,0.538994 0.981,1.064995 1.488,1.584z"/>
     <path d="m0.983,40.108002c0.104,-0.515999 0.225,-1.023998 0.344,-1.534c-0.119,0.509998 -0.241,1.018997 -0.344,1.534z"/>
     <path d="m1.519,37.745998c0.138,-0.546001 0.292,-1.085999 0.448,-1.625c-0.155,0.539001 -0.311,1.078003 -0.448,1.625z"/>
     <path d="m0,50l0,0c0,-0.012001 0.001,-0.022999 0.001,-0.035c0,0.011002 -0.001,0.022999 -0.001,0.035z"/>
     <path d="m11.128,81.435997c-0.467,-0.575996 -0.923,-1.161003 -1.364,-1.758003c0.442,0.597008 0.898,1.182007 1.364,1.758003z"/>
     <path d="m12.659,83.237c-0.490001,-0.549004 -0.97,-1.107002 -1.435,-1.679001c0.465,0.570999 0.945,1.130005 1.435,1.679001z"/>
     <path d="m0.064,47.466c0.017,-0.333 0.05,-0.661999 0.074,-0.993999c-0.024,0.332001 -0.057,0.66 -0.074,0.993999z"/>
     <path d="m59.702999,99.050003c-0.924999,0.182999 -1.860001,0.333 -2.802002,0.463997c0.943005,-0.129997 1.877003,-0.281998 2.802002,-0.463997z"/>
     <path d="m52.921001,0.091c-0.968002,-0.055 -1.940002,-0.091 -2.921001,-0.091c-0.042,0 -0.084,0.003 -0.126999,0.003c0.042,0 0.084,-0.002 0.125999,-0.002c0.980999,0 1.953999,0.034 2.922001,0.09z"/>
     <path d="m62.863998,98.320999c-1.013,0.268997 -2.036999,0.508003 -3.074001,0.713997c1.037003,-0.205994 2.062004,-0.445999 3.074001,-0.713997z"/>
     <path d="m53.014999,99.901001c-0.958,0.057999 -1.921001,0.093002 -2.893002,0.096001c0.972004,-0.002998 1.935001,-0.039001 2.893002,-0.096001z"/>
     <path d="m67.640999,96.789001c-0.781998,0.294998 -1.572998,0.570999 -2.373001,0.828003c0.799004,-0.257004 1.590004,-0.534004 2.373001,-0.828003z"/>
     <path d="m3.7,68.879997c-0.246,-0.600998 -0.487,-1.205002 -0.709,-1.817001c0.222,0.612007 0.464,1.216003 0.709,1.817001z"/>
     <path d="m56.132,99.612c-0.744999,0.092003 -1.495998,0.165001 -2.250999,0.223999c0.755001,-0.058998 1.506001,-0.132996 2.250999,-0.223999z"/>
     <path d="m97.677002,34.91l-14.177002,14.175999l-33.085999,-33.085999l13.905998,-13.907c1.976997,0.59 3.901001,1.299 5.767998,2.119c-3.404999,-1.496 -7.007996,-2.622 -10.759998,-3.33c0.933002,0.177 1.858002,0.375 2.771999,0.602l-13.100998,13.102l-12.675999,-12.676c1.540001,-0.437 3.109001,-0.8 4.705002,-1.092c-8.949001,1.623 -17.064001,5.623 -23.673002,11.328c4.873001,-4.206 10.565001,-7.485 16.807001,-9.569l13.422997,13.423l-15.147999,15.149l-17.133,-17.133c0.658,-0.635 1.334001,-1.250999 2.026,-1.849c-2.959,2.558001 -5.614,5.454 -7.906,8.632999c1.365,-1.891998 2.859,-3.685999 4.469,-5.367l17.129999,17.13l-17.643999,17.645c-0.000999,0.000999 -0.002999,0.000999 -0.004,0.001999c-0.391,0.393002 -0.391,1.023003 0,1.414001s1.022,0.392998 1.414,0l0.001,0.001999l17.648,-17.647999l16.522999,16.521999l-34.578999,34.580002c0.468,0.474998 0.948,0.936996 1.435,1.392998l17.620999,-17.619995l29.459,29.459999c0.737,-0.196007 1.468998,-0.406006 2.192997,-0.635002l-30.237995,-30.239998l15.522999,-15.522999l34.191002,34.191998c0.481003,-0.460999 0.954002,-0.931999 1.417999,-1.410995l-17.632004,-17.633003l15.148003,-15.148003l13.924004,13.924004c0.237999,-0.713005 0.459999,-1.434006 0.665993,-2.161003l-13.175995,-13.178001l13.397003,-13.396999m-31.373001,28.546001l-33.086002,-33.086002l15.147999,-15.147999l33.085999,33.084999l-15.147995,15.149002z"/>
     <path d="m32.171001,49.292999c-2.158998,0 -3.911001,1.751999 -3.911001,3.911999l3.911001,6.037003l3.913002,-6.037003c-0.000004,-2.16 -1.751003,-3.911999 -3.913002,-3.911999zm0.001999,5.387001c-1.000999,0 -1.812,-0.812 -1.812,-1.812s0.812,-1.811001 1.812,-1.811001c0.999001,0 1.811001,0.811001 1.811001,1.811001s-0.812,1.812 -1.811001,1.812z"/>
     <path d="m84.529999,86.140999c-0.665001,0.636002 -1.347,1.252998 -2.044998,1.851997c0.699997,-0.598999 1.379997,-1.215996 2.044998,-1.851997z"/>
     <path d="m72.785004,94.500999c-0.656998,0.337997 -1.323997,0.661003 -1.998001,0.970001c0.673996,-0.307999 1.339996,-0.632004 1.998001,-0.970001z"/>
     <path d="m70.200996,95.737c-0.655998,0.290001 -1.32,0.564003 -1.989998,0.827003c0.671005,-0.263 1.334,-0.537003 1.989998,-0.827003z"/>
     <path d="m82.453003,88.019997c-2.823997,2.414001 -5.921997,4.516998 -9.237,6.261002c3.316994,-1.742996 6.411995,-3.847 9.237,-6.261002z"/>
     <path d="m72.941002,5.578"/>
     <path d="m42.535,99.442001c-0.351002,-0.052002 -0.696999,-0.119003 -1.046001,-0.179001c0.348003,0.059998 0.695,0.126999 1.046001,0.179001z"/>
     <path d="m37.784,98.489998c-0.417,-0.103996 -0.827999,-0.222 -1.240002,-0.336998c0.413002,0.114998 0.824001,0.232002 1.240002,0.336998z"/>
     <path d="m40.137001,99.022003c-0.388,-0.078003 -0.771999,-0.168999 -1.157001,-0.255997c0.386002,0.08699 0.769001,0.177994 1.157001,0.255997z"/>
     <path d="m44.978001,99.749001c-0.296001,-0.029999 -0.588001,-0.072998 -0.882999,-0.107002c0.294998,0.033005 0.586998,0.077003 0.882999,0.107002z"/>
     <path d="m47.459999,99.934998c-0.182999,-0.009003 -0.362999,-0.028 -0.546001,-0.040001c0.183002,0.012001 0.363003,0.031006 0.546001,0.040001z"/>
     <path d="m38.98,98.765999c-0.398998,-0.089996 -0.799999,-0.177002 -1.195999,-0.276001c0.396,0.098999 0.797001,0.186005 1.195999,0.276001z" fill="#000000"/>
     <path d="m21.299,90.93c-0.101999,-0.070999 -0.202,-0.143997 -0.302999,-0.216003c0.101,0.073006 0.201,0.145004 0.302999,0.216003z" fill="#000000"/>
     <path d="m19.400999,89.528999c-0.073,-0.056 -0.145,-0.112999 -0.217001,-0.169998c0.072002,0.056999 0.144001,0.113998 0.217001,0.169998z" fill="#000000"/>
     <path d="m29.612,95.652c-0.234999,-0.105003 -0.471001,-0.209999 -0.703999,-0.318001c0.233999,0.108002 0.469,0.211998 0.703999,0.318001z" fill="#000000"/>
     <path d="m31.860001,96.591003c-0.272999,-0.106003 -0.546999,-0.210999 -0.816999,-0.321999c0.269999,0.110992 0.543999,0.215996 0.816999,0.321999z" fill="#000000"/>
     <path d="m46.914001,99.894997c-0.647999,-0.039001 -1.295002,-0.083 -1.936001,-0.145996c0.640999,0.062996 1.287998,0.107002 1.936001,0.145996z" fill="#000000"/>
     <path d="m34.169998,97.426003c-0.312,-0.103996 -0.625,-0.206001 -0.935001,-0.316002c0.310001,0.110001 0.623005,0.211998 0.935001,0.316002z" fill="#000000"/>
     <path d="m15.816,86.473c0.006,0.005997 0.013,0.012001 0.019,0.017998c-0.006,-0.005997 -0.012,-0.013 -0.019,-0.017998l0,0z" fill="#000000"/>
     <path d="m56.901001,99.514c-0.256001,0.035004 -0.513,0.066002 -0.77,0.098c0.257999,-0.030998 0.514999,-0.062996 0.77,-0.098z" fill="#000000"/>
     <path d="m36.543999,98.153c-0.354,-0.098999 -0.709,-0.195 -1.060001,-0.301003c0.350002,0.106003 0.706001,0.202003 1.060001,0.301003z" fill="#000000"/>
     <path d="m59.790001,99.035004c-0.028999,0.005997 -0.058998,0.010002 -0.086998,0.015999c0.027996,-0.007004 0.057999,-0.010002 0.086998,-0.015999z" fill="#000000"/>
     <path d="m25.316,93.474998c-0.165001,-0.094002 -0.33,-0.188004 -0.493999,-0.282997c0.164,0.096001 0.328999,0.188995 0.493999,0.282997z" fill="#000000"/>
     <path d="m44.095001,99.640999c-0.521,-0.061996 -1.043999,-0.121002 -1.561001,-0.198997c0.516998,0.077995 1.040001,0.138 1.561001,0.198997z" fill="#000000"/>
     <path d="m17.579,88.047997c-0.045,-0.039001 -0.09,-0.079002 -0.136,-0.116997c0.046,0.038002 0.091,0.078003 0.136,0.116997z" fill="#000000"/>
     <path d="m27.431,94.612c-0.199999,-0.100998 -0.399,-0.201996 -0.597,-0.306c0.198,0.104004 0.397001,0.204002 0.597,0.306z" fill="#000000"/>
     <path d="m53.881001,99.834999c-0.288998,0.021004 -0.576,0.047997 -0.866001,0.065002c0.290001,-0.016998 0.577,-0.042 0.866001,-0.065002z" fill="#000000"/>
     <path d="m41.487999,99.263c-0.451,-0.077003 -0.903999,-0.151001 -1.351002,-0.240997c0.447002,0.089996 0.900002,0.163994 1.351002,0.240997z" fill="#000000"/>
     <path d="m62.896999,98.313004l0,0c-0.012001,0.001999 -0.021999,0.004997 -0.033001,0.008003c0.011002,-0.003006 0.023003,-0.005005 0.033001,-0.008003z" fill="#000000"/>
     <path d="m23.271,92.247002c-0.132,-0.084 -0.263,-0.167999 -0.393999,-0.252998c0.129999,0.084999 0.261999,0.168999 0.393999,0.252998z" fill="#000000"/>
     <path d="m47.459999,99.934998c0.841,0.042 1.688,0.065002 2.539001,0.065002c0.042,0 0.081997,-0.004005 0.122997,-0.004005c-0.040997,0.001007 -0.080997,0.004005 -0.121998,0.004005c-0.852001,0 -1.698002,-0.023003 -2.540001,-0.065002z" fill="#000000"/>
     <path d="m98.091003,63.678001c0.004997,-0.017002 0.009003,-0.033001 0.013,-0.049c-0.004005,0.015999 -0.009003,0.032997 -0.013,0.049l0,0z" fill="#000000"/>
     <path d="m8.395,77.730003c-0.033,-0.049004 -0.062,-0.099998 -0.095,-0.148003c0.033,0.047997 0.062,0.098999 0.095,0.148003z" fill="#000000"/>
     <path d="m3.87,69.311996c-0.06,-0.142998 -0.111,-0.288002 -0.17,-0.431999c0.059,0.144005 0.111,0.289001 0.17,0.431999z" fill="#000000"/>
     <path d="m8.064,22.785999c0.016,-0.024 0.031,-0.048 0.046,-0.072001c-0.014999,0.023001 -0.03,0.047001 -0.046,0.072001z" fill="#000000"/>
     <path d="m5.638,26.941c0.038,-0.073 0.074,-0.146 0.112,-0.219c-0.038,0.073 -0.074,0.146999 -0.112,0.219z" fill="#000000"/>
     <path d="m6.806,24.826c0.027,-0.046 0.053,-0.093 0.08,-0.139c-0.028,0.046 -0.053,0.093 -0.08,0.139z" fill="#000000"/>
     <path d="m2.218,64.762001c-0.07,-0.227997 -0.128,-0.459 -0.195,-0.688004c0.066,0.229004 0.124,0.461006 0.195,0.688004z" fill="#000000"/>
     <path d="m4.854,71.505997c-0.054,-0.111 -0.101,-0.225998 -0.153,-0.337997c0.052,0.112 0.099,0.226997 0.153,0.337997z" fill="#000000"/>
     <path d="m2.991,67.063004c-0.065,-0.18 -0.121,-0.362999 -0.184,-0.543999c0.063,0.180992 0.118,0.363998 0.184,0.543999z" fill="#000000"/>
     <path d="m5.937,73.640999c-0.044,-0.083 -0.084,-0.168999 -0.129,-0.251999c0.044,0.083 0.084,0.168999 0.129,0.251999z" fill="#000000"/>
     <path d="m1.555,62.410999c-0.072,-0.281002 -0.129,-0.567001 -0.196,-0.849998c0.066,0.281998 0.124,0.569 0.196,0.849998z" fill="#000000"/>
     <path d="m0.57,57.569c-0.063,-0.415001 -0.107,-0.837002 -0.16,-1.256001c0.053,0.418999 0.097,0.841 0.16,1.256001z" fill="#000000"/>
     <path d="m4.564,29.134001c0.049,-0.105999 0.095,-0.212999 0.144,-0.319c-0.049,0.105 -0.095,0.212999 -0.144,0.319z" fill="#000000"/>
     <path d="m1.004,60.012001c-0.07,-0.341999 -0.123,-0.689999 -0.185,-1.035999c0.063,0.345997 0.116,0.693996 0.185,1.035999z" fill="#000000"/>
     <path d="m7.119,75.717003c-0.039,-0.064003 -0.074,-0.130997 -0.112,-0.195c0.038,0.063995 0.073,0.130997 0.112,0.195z" fill="#000000"/>
     <path d="m9.407,20.823999c0.006001,-0.008001 0.012,-0.016001 0.018001,-0.024c-0.007,0.008001 -0.012,0.016001 -0.018001,0.024z" fill="#000000"/>
     <path d="m12.771,83.367996c-0.038,-0.042999 -0.073998,-0.087997 -0.112,-0.130997c0.038001,0.042999 0.073999,0.087997 0.112,0.130997z" fill="#000000"/>
     <path d="m14.381,85.081001l0,0c-0.040999,-0.042999 -0.08,-0.086998 -0.122,-0.128998c0.042,0.042 0.081,0.086998 0.122,0.128998z" fill="#000000"/>
     <path d="m0.138,46.472c0.035,-0.500999 0.064,-1.004002 0.114,-1.500999c-0.05,0.496998 -0.079,1 -0.114,1.500999z" fill="#000000"/>
     <path d="m0.408,43.710999c0.05,-0.397999 0.092,-0.799 0.152,-1.194c-0.06,0.396 -0.102,0.796001 -0.152,1.194z" fill="#000000"/>
     <path d="m0.805,41.103001c0.06,-0.332001 0.111,-0.666 0.178,-0.994999c-0.066,0.329998 -0.118,0.662998 -0.178,0.994999z" fill="#000000"/>
     <path d="m0.001,49.964001c0,-0.838001 0.022,-1.671001 0.063,-2.499001c-0.042,0.827999 -0.063,1.660999 -0.063,2.499001z" fill="#000000"/>
     <path d="m9.764,79.678001c-0.03,-0.041 -0.059,-0.084 -0.089,-0.125c0.031,0.041 0.059,0.084 0.089,0.125z" fill="#000000"/>
     <path d="m1.327,38.574001c0.064,-0.276001 0.122,-0.554001 0.191,-0.827999c-0.069,0.273998 -0.126,0.551998 -0.191,0.827999z" fill="#000000"/>
     <path d="m0.256,55.084c-0.053,-0.528999 -0.084,-1.064999 -0.122,-1.598999c0.037,0.534 0.069,1.07 0.122,1.598999z" fill="#000000"/>
     <path d="m3.592,31.393999c0.057,-0.143 0.11,-0.287001 0.169,-0.427999c-0.059,0.141001 -0.112,0.285 -0.169,0.427999z" fill="#000000"/>
     <path d="m11.225,81.557999c-0.033,-0.040001 -0.063001,-0.082001 -0.096001,-0.122002c0.032001,0.040001 0.062,0.082001 0.096001,0.122002z" fill="#000000"/>
     <path d="m0,50c0,0.858002 0.022,1.712002 0.065,2.560001c-0.043,-0.848 -0.065,-1.702 -0.065,-2.560001l0,0z" fill="#000000"/>
     <path d="m1.967,36.120998c0.066,-0.229 0.126,-0.460999 0.196,-0.688999c-0.07,0.228001 -0.13,0.459999 -0.196,0.688999z" fill="#000000"/>
     <path d="m2.724,33.723999c0.063,-0.184002 0.122,-0.368999 0.187,-0.551998c-0.065,0.182999 -0.124,0.368999 -0.187,0.551998z" fill="#000000"/>
     <path d="m45.514,0.21c0.492001,-0.044 0.986,-0.083 1.481998,-0.112c-0.495998,0.03 -0.989998,0.068 -1.481998,0.112z" fill="#000000"/>
     <path d="m55.861,0.354c0.223999,0.026 0.445,0.056 0.667999,0.084c-0.222,-0.029 -0.444,-0.058 -0.667999,-0.084z" fill="#000000"/>
     <path d="m42.896,0.511c0.417999,-0.06 0.839001,-0.111 1.261002,-0.16c-0.422001,0.05 -0.843002,0.1 -1.261002,0.16z" fill="#000000"/>
     <path d="m41.028,0.818c0.171001,-0.031 0.342999,-0.062 0.514999,-0.092c-0.172001,0.03 -0.343998,0.061 -0.514999,0.092z" fill="#000000"/>
     <path d="m58.890999,0.804c0.146,0.026 0.292,0.051 0.438,0.079c-0.146,-0.029 -0.292999,-0.053 -0.438,-0.079z" fill="#000000"/>
     <path d="m47.782001,0.056c0.693001,-0.03 1.389999,-0.051 2.091,-0.053c-0.701,0.002 -1.396999,0.022 -2.091,0.053z" fill="#000000"/>
     <path d="m52.921001,0.091c0.227001,0.013 0.451,0.036 0.678001,0.052c-0.227001,-0.017 -0.452003,-0.038 -0.678001,-0.052z" fill="#000000"/>
     <path d="m17.33,12.167c0.007999,-0.007 0.016001,-0.014 0.024,-0.021c-0.007999,0.007 -0.016001,0.014 -0.024,0.021z" fill="#000000"/>
     <path d="m73.216003,94.280998c-0.142998,0.074997 -0.287003,0.145996 -0.431,0.221001c0.143997,-0.074997 0.287994,-0.145996 0.431,-0.221001z" fill="#000000"/>
     <path d="m68.210999,96.564003c-0.190002,0.073997 -0.378998,0.152 -0.57,0.224998c0.191002,-0.072998 0.380005,-0.151001 0.57,-0.224998z" fill="#000000"/>
     <path d="m65.091003,97.678001c0.059998,-0.018997 0.116997,-0.042999 0.177002,-0.062004c-0.060005,0.019005 -0.119003,0.042 -0.177002,0.062004l0,0z" fill="#000000"/>
     <path d="m84.567001,86.108002l0,0c-0.013,0.011002 -0.025002,0.021004 -0.037003,0.032997c0.013,-0.012001 0.026001,-0.020996 0.037003,-0.032997z" fill="#000000"/>
     <path d="m70.787003,95.471001c-0.195,0.090004 -0.390999,0.179001 -0.585999,0.265999c0.195,-0.087997 0.390999,-0.176003 0.585999,-0.265999z" fill="#000000"/>
     <path d="m82.485001,87.992996c-0.011002,0.009003 -0.020996,0.018997 -0.031998,0.027c0.010994,-0.008995 0.021996,-0.018997 0.031998,-0.027z" fill="#000000"/>
     <path d="m72.750999,5.48c0.062996,0.032 0.126999,0.065 0.190002,0.097c-0.063004,-0.032 -0.126999,-0.064 -0.190002,-0.097z" fill="#000000"/>
     <path d="m70.087997,4.212c0.009003,0.004 0.018997,0.008 0.027,0.013c-0.008995,-0.005 -0.017998,-0.009 -0.027,-0.013z" fill="#000000"/>
     <polygon points="97.424,65.838 97.424,65.838 97.423,65.841   " fill="#000000"/>
     <path d="m85.984001,84.695999c0.004997,-0.004997 0.010002,-0.011002 0.014999,-0.016998c-0.004997,0.005997 -0.010002,0.011002 -0.014999,0.016998l0,0z" fill="#000000"/>
    </g>
    <g>
     <path d="m50,0c-27.614,0 -50,22.386 -50,50s22.386,50 50,50s50,-22.386002 50,-50s-22.386002,-50 -50,-50zm0,98.5c-26.785,0 -48.5,-21.713997 -48.5,-48.5s21.715,-48.5 48.5,-48.5s48.5,21.715 48.5,48.5s-21.714996,48.5 -48.5,48.5z"/>
    </g>
   </g>
   <g display="none">
    <g display="inline">
     <path d="m50,0c-27.613001,0 -50,22.386 -50,50s22.386,50 50,50c27.613998,0 50,-22.387001 50,-50s-22.386002,-50 -50,-50zm0,95c-24.851,0 -45,-20.150002 -45,-45c0,-24.851 20.149,-45 45,-45s45,20.149 45,45c0,24.849998 -20.149002,45 -45,45z"/>
    </g>
    <g display="inline">
     <path d="m50,38.980999c-6.425999,0 -11.726002,4.813999 -12.5,11.032001l25,0c-0.771999,-6.218002 -6.071999,-11.032001 -12.5,-11.032001z"/>
    </g>
   </g>
   <text font-family="&#x27;Helvetica Neue', Helvetica, Arial-Unicode, Arial, Sans-serif" font-weight="bold" font-size="5px" fill="#000000" y="115" x="0">Created by Paul Stevens</text>
   <text font-family="&#x27;Helvetica Neue', Helvetica, Arial-Unicode, Arial, Sans-serif" font-weight="bold" font-size="5px" fill="#000000" y="120" x="0">from the Noun Project</text>
  </symbol>
  <symbol id="svg_46" viewBox="0 0 100 100" y="0px" x="0px" xmlns:xlink="http://www.w3.org/1999/xlink" xmlns="http://www.w3.org/2000/svg">
   <path d="m50.000999,0c-19.893,0 -36.02,17.104 -36.02,36.019001c0,26.644001 35.278999,63.648998 36.02,63.978001c0.738998,0.329002 36.017998,-37.334 36.017998,-63.978001c0,-19.901001 -16.125,-36.019001 -36.017998,-36.019001zm0,57.893002c-11.807999,0 -21.381001,-9.571999 -21.381001,-21.378998c0,-11.809002 9.573002,-21.381002 21.381001,-21.381002c11.806999,0 21.378998,9.572001 21.378998,21.381002c0,11.806995 -9.571999,21.378998 -21.378998,21.378998z"/>
  </symbol>
 </defs>
 <g>
  <title>Layer 1</title>
  <use x="-127.2" y="-2.4" transform="matrix(1.25,0,0,1.25,0,0) " xlink:href="#svg_39" id="svg_40"/>
  <use x="-121.98551" y="-162.18838" transform="matrix(1.0135553800583104,0,0,0.9891084980081394,-4.698632890159937,166.9978682567551) " xlink:href="#svg_41" id="svg_42"/>
  <rect stroke="#ffffff" id="svg_43" height="66.999999" width="248.999994" y="405" x="5.000006" stroke-width="5" fill="#ffffff"/>
  <rect id="svg_44" height="42" width="34" y="188" x="106" stroke-linecap="null" stroke-linejoin="null" stroke-dasharray="null" stroke-width="5" stroke="#ffffff" fill="#ffffff"/>
  <use x="-10" y="-3.333333" transform="matrix(0.09173545259588621,0,0,0.0965855863454089,253.5328244710695,71.08968130299573) " xlink:href="#svg_46" id="svg_47"/>
  <use id="svg_48" x="-1258.86106" y="897.771642" transform="matrix(0.0917354525958862,0,0,0.0965855863454089,314.68812461145035,196.4441734904957) " xlink:href="#svg_46"/>
  <use id="svg_49" x="-2091.434851" y="-279.181705" transform="matrix(0.0917354525958862,0,0,0.0965855863454089,314.68812461145035,196.4441734904957) " xlink:href="#svg_46"/>
 </g>
</svg>