<svg xmlns="http://www.w3.org/2000/svg" xmlns:xlink="http://www.w3.org/1999/xlink" version="1.1" x="0px" y="0px" viewBox="0 0 100 125" enable-background="new 0 0 100 100" xml:space="preserve"><path d="M76.293,33.427c0.043-2.309-0.222-4.879-1.185-7.386c-0.91-2.503-2.825-4.967-5.47-6.373  c-2.65-1.412-5.726-1.571-8.441-1.073c-0.679,0.14-1.347,0.314-2.013,0.493c-0.64,0.233-1.295,0.444-1.92,0.703  c-0.615,0.289-1.227,0.545-1.841,0.869c-0.608,0.366-1.263,0.691-1.806,1.123c-2.289,1.629-4.127,3.648-5.713,5.795  c-1.426,1.981-2.658,4.069-3.719,6.243c-0.372-1.377-0.835-2.737-1.43-4.068c-1.132-2.484-2.713-4.961-5.215-6.737  c-1.242-0.877-2.718-1.518-4.246-1.787c-1.531-0.276-3.069-0.187-4.479,0.114l-1.043,0.257l-0.989,0.336  c-0.662,0.25-1.36,0.595-2.01,0.952c-1.298,0.819-2.472,1.942-3.257,3.293c-0.737,1.345-1.213,2.794-1.347,4.17  c-0.172,1.379-0.138,2.707,0.017,3.965c0.306,2.517,0.972,4.821,1.821,6.961c0.853,2.196,1.899,4.017,2.821,5.885  c0.918,1.871,1.972,3.566,2.903,5.267c0.97,1.671,1.968,3.231,2.886,4.752c1.893,3,3.651,5.698,5.231,8.056  c1.558,2.362,2.911,4.414,4.025,6.105c1.093,1.685,1.869,3.075,2.475,3.974c4.456,6.248,10.732,2.121,5.816-4.19  c-0.685-0.864-1.767-2.021-3.03-3.592c-1.261-1.562-2.793-3.477-4.469-5.705c-1.708-2.223-3.554-4.771-5.524-7.607  c-0.948-1.431-1.979-2.909-2.97-4.485c-0.944-1.592-2.021-3.204-2.944-4.95c-0.92-1.737-1.998-3.53-2.739-5.327  c-0.782-1.825-1.373-3.78-1.653-5.724c-0.3-1.946-0.129-3.873,0.631-5.282c0.392-0.696,0.963-1.252,1.664-1.731  c0.395-0.205,0.767-0.414,1.219-0.597l0.709-0.252l0.709-0.183c1.898-0.438,3.705-0.175,5.269,0.911  c1.576,1.074,2.858,2.896,3.783,4.933c0.838,1.865,1.433,3.901,1.78,5.979c0.218,1.303,0.245,2.192,0.269,3.032  c0.016,0.567,0.018,2.188,0.038,2.835c0.094,2.897,1.384,3.918,2.893,2.271c1.011-1.103,0.892-1.683,2.287-5.22  s3.056-7.231,5.298-10.295c1.39-1.869,2.98-3.547,4.737-4.767c0.425-0.341,0.895-0.544,1.336-0.819  c0.477-0.241,0.998-0.453,1.492-0.684c0.504-0.2,1.015-0.353,1.517-0.537c0.511-0.125,1.019-0.254,1.522-0.355  c2.013-0.334,3.978-0.142,5.5,0.707c1.504,0.863,2.644,2.266,3.241,4.026c0.623,1.748,0.823,3.672,0.729,5.677  c-0.019,0.491,0.035,0.987-0.045,1.463c-0.062,0.479-0.127,0.953-0.19,1.425c-0.071,0.95-0.354,1.847-0.582,2.735  c-0.98,3.552-2.834,6.605-4.868,9.267c-2.033,2.666-4.2,4.993-6.14,7.123c-1.959,2.121-3.67,4.073-5.069,5.767  c-1.366,1.72-2.534,3.093-3.166,4.203c-0.946,1.48-1.023,2.87-0.737,3.823c0.298,0.968,1.024,1.571,1.901,1.847  c0.879,0.275,1.905,0.237,2.808-0.1c0.901-0.345,1.655-0.984,2.248-2.004c0.487-0.978,1.13-2.284,2.181-3.926  c1.086-1.632,2.517-3.556,4.314-5.771c1.785-2.23,3.914-4.739,6.043-7.797c2.121-3.041,4.244-6.754,5.319-11.155  c0.251-1.1,0.549-2.207,0.62-3.366c0.059-0.573,0.121-1.153,0.181-1.735C76.347,34.599,76.285,34.015,76.293,33.427z"/><text x="0" y="115" fill="#000000" font-size="5px" font-weight="bold" font-family="'Helvetica Neue', Helvetica, Arial-Unicode, Arial, Sans-serif">Created by Veronika Geertsema König</text><text x="0" y="120" fill="#000000" font-size="5px" font-weight="bold" font-family="'Helvetica Neue', Helvetica, Arial-Unicode, Arial, Sans-serif">from the Noun Project</text></svg>