<?xml version="1.0"?>
<svg width="640" height="480" xmlns="http://www.w3.org/2000/svg" xmlns:svg="http://www.w3.org/2000/svg" xmlns:xlink="http://www.w3.org/1999/xlink">
 <!-- Created with SVG-edit - http://svg-edit.googlecode.com/ -->
 <defs>
  <symbol id="svg_1" viewBox="0 0 100 125" y="0px" x="0px" xmlns:xlink="http://www.w3.org/1999/xlink" xmlns="http://www.w3.org/2000/svg">
   <path d="m76.292999,33.426998c0.042999,-2.308998 -0.222,-4.878998 -1.184998,-7.385998c-0.910004,-2.503 -2.825005,-4.967001 -5.470001,-6.373001c-2.650002,-1.411999 -5.726002,-1.570999 -8.441002,-1.073c-0.678997,0.140001 -1.347,0.314001 -2.013,0.493c-0.639999,0.233 -1.294998,0.444 -1.919998,0.703001c-0.615002,0.289 -1.227001,0.545 -1.841,0.868999c-0.608002,0.365999 -1.263,0.691 -1.806,1.123001c-2.289001,1.629 -4.126999,3.647999 -5.713001,5.794998c-1.425999,1.981001 -2.658001,4.069 -3.718998,6.243c-0.372002,-1.376999 -0.835003,-2.737 -1.43,-4.067999c-1.132,-2.484001 -2.713001,-4.961 -5.215,-6.737c-1.242001,-0.877001 -2.718002,-1.518002 -4.246002,-1.787001c-1.530998,-0.276001 -3.068998,-0.187 -4.478998,0.114l-1.043001,0.257l-0.988998,0.336c-0.662001,0.25 -1.360001,0.594999 -2.01,0.952c-1.298,0.819 -2.472,1.941999 -3.257,3.292999c-0.737001,1.344999 -1.213001,2.794001 -1.347,4.17c-0.172001,1.379 -0.138,2.706999 0.017,3.965002c0.306,2.516998 0.972,4.820999 1.820999,6.960999c0.853001,2.195999 1.899,4.016998 2.820999,5.884998c0.918001,1.871002 1.972,3.566002 2.903002,5.267002c0.969999,1.670998 1.967999,3.230999 2.886,4.751999c1.892998,3 3.651001,5.698002 5.230999,8.056c1.557999,2.362 2.910999,4.414001 4.025002,6.105003c1.092999,1.684998 1.868999,3.074997 2.474998,3.973999c4.456001,6.248001 10.732002,2.120995 5.816002,-4.190002c-0.685001,-0.863998 -1.767002,-2.020996 -3.030003,-3.592003c-1.260998,-1.561996 -2.792999,-3.476997 -4.468998,-5.704998c-1.708,-2.223 -3.554001,-4.771 -5.524002,-7.606998c-0.947998,-1.431 -1.979,-2.909 -2.969997,-4.485001c-0.944002,-1.591999 -2.021002,-3.203999 -2.944002,-4.950001c-0.92,-1.737 -1.997999,-3.529999 -2.738998,-5.327c-0.782001,-1.825001 -1.373001,-3.779999 -1.653002,-5.723999c-0.299999,-1.945999 -0.129,-3.872999 0.631001,-5.282c0.392,-0.696001 0.963001,-1.252001 1.664,-1.731001c0.395,-0.205 0.767,-0.414 1.219002,-0.597l0.709,-0.251999l0.709,-0.183001c1.898001,-0.438 3.705,-0.174999 5.268999,0.910999c1.576,1.074001 2.858002,2.896 3.783001,4.933001c0.838001,1.865002 1.432999,3.901001 1.779999,5.979c0.218002,1.303001 0.245003,2.192001 0.269001,3.032001c0.015999,0.566998 0.018002,2.188 0.037998,2.834999c0.094002,2.896999 1.384003,3.917999 2.893002,2.271c1.011002,-1.103001 0.892002,-1.682999 2.286999,-5.220001s3.056,-7.230999 5.298,-10.295c1.389999,-1.868999 2.98,-3.546999 4.737,-4.766998c0.425003,-0.341002 0.895,-0.544001 1.336002,-0.819c0.477001,-0.241001 0.998001,-0.453001 1.492001,-0.684c0.503998,-0.200001 1.014999,-0.353001 1.516998,-0.537001c0.511002,-0.125 1.019001,-0.254 1.521999,-0.355c2.013,-0.334 3.978004,-0.142 5.5,0.706999c1.503998,0.863001 2.644005,2.266001 3.240997,4.026001c0.623001,1.747999 0.823006,3.671999 0.729004,5.676998c-0.018997,0.491001 0.034996,0.987003 -0.044998,1.463001c-0.062004,0.479 -0.126999,0.952999 -0.190002,1.424999c-0.070999,0.950001 -0.353996,1.847 -0.582001,2.735001c-0.979996,3.552002 -2.834,6.605 -4.867996,9.267002c-2.033001,2.666 -4.200001,4.993 -6.140003,7.122997c-1.959,2.121002 -3.669998,4.073002 -5.069,5.767002c-1.365997,1.719997 -2.534,3.093002 -3.166,4.202995c-0.945999,1.480003 -1.022999,2.870003 -0.737,3.823006c0.298,0.967995 1.024002,1.570999 1.901001,1.847c0.879002,0.275002 1.904999,0.237 2.807999,-0.099998c0.901001,-0.345001 1.655003,-0.984001 2.248001,-2.004005c0.487,-0.977997 1.130001,-2.283997 2.181,-3.925995c1.085999,-1.632004 2.517002,-3.556004 4.313999,-5.771004c1.785004,-2.23 3.914001,-4.738998 6.042999,-7.797001c2.121002,-3.041 4.244003,-6.753998 5.319,-11.154999c0.250999,-1.099998 0.549004,-2.207001 0.620003,-3.366001c0.058998,-0.572998 0.121002,-1.153 0.181,-1.735001c0.070999,-0.584999 0.009003,-1.168999 0.016998,-1.757z"/>
   <text font-family="&#x27;Helvetica Neue', Helvetica, Arial-Unicode, Arial, Sans-serif" font-weight="bold" font-size="5px" fill="#000000" y="115" x="0">Created by Veronika Geertsema König</text>
   <text font-family="&#x27;Helvetica Neue', Helvetica, Arial-Unicode, Arial, Sans-serif" font-weight="bold" font-size="5px" fill="#000000" y="120" x="0">from the Noun Project</text>
  </symbol>
 </defs>
 <g>
  <title>Layer 1</title>
  <use x="-125.624998" y="-37.708334" transform="matrix(1.8047510416023584,0,0,1.7242107648284841,-12.315658215045431,-29.177722692489617) " xlink:href="#svg_1" id="svg_2"/>
 </g>
</svg>