<svg xmlns="http://www.w3.org/2000/svg" xmlns:svg="http://www.w3.org/2000/svg" xmlns:xlink="http://www.w3.org/1999/xlink" width="640" height="480">
  <defs>
    <symbol xmlns:xlink="http://www.w3.org/1999/xlink" xmlns="http://www.w3.org/2000/svg" id="svg_1" viewBox="0 0 108.121 124.27625" y="0px" x="0px">
      <circle r="5.742" cy="350.688" cx="410.199" fill="#ffffff"/>
      <circle r="6.919" cy="365.103" cx="410.199" fill="#ffffff"/>
      <polyline points="403.279 365.103 403.279 388.627 417.118 388.627 417.118 365.103 " fill="#ffffff"/>
      <circle r="4.338" cy="362.006" cx="387.805" fill="#ffffff"/>
      <circle r="5.228" cy="372.896" cx="387.805" fill="#ffffff"/>
      <polyline points="382.577 372.896 382.577 388.627 393.032 388.627 393.032 372.896 " fill="#ffffff"/>
      <circle r="4.337" cy="361.962" cx="432.732" fill="#ffffff"/>
      <circle r="5.227" cy="372.854" cx="432.732" fill="#ffffff"/>
      <polyline points="427.505 372.854 427.505 388.627 437.959 388.627 437.959 372.854 " fill="#ffffff"/>
      <circle r="3.174" cy="352.052" cx="393.146" fill="#ffffff"/>
      <polyline points="390.903 354.297 409.095 372.487 413.582 367.999 395.39 349.807 " fill="#ffffff"/>
      <circle r="3.174" cy="352.052" cx="427.443" fill="#ffffff"/>
      <polyline points="425.198 349.808 407.008 368 411.496 372.488 429.688 354.296 " fill="#ffffff"/>
      <circle r="9.124" cy="25.544" cx="54.521"/>
      <circle r="10.995" cy="48.449" cx="54.521"/>
      <polyline points="43.526 48.449 43.526 85.829 65.516 85.829 65.516 48.449 "/>
      <circle r="6.893" cy="43.528" cx="18.937"/>
      <circle r="8.306" cy="60.833" cx="18.938"/>
      <polyline points="10.631 60.833 10.631 85.829 27.244 85.829 27.244 60.833 "/>
      <circle r="6.892" cy="43.459" cx="90.326"/>
      <circle r="8.306" cy="60.765" cx="90.326"/>
      <polyline points="82.02 60.765 82.02 85.829 98.631 85.829 98.631 60.765 "/>
      <path d="m30.99 24.143999c1.968 1.969999 1.969999 5.164 0 7.135 -1.969999 1.967999-5.160999 1.967999-7.129 0 -1.972-1.971001-1.972-5.166-0.000999-7.135 1.969-1.969 5.160999-1.969 7.129999 0z"/>
      <polyline points="23.861 31.279 52.767 60.184 59.897 53.051 30.99 24.144 "/>
      <circle r="5.044" cy="27.712" cx="81.921"/>
      <polyline points="78.354 24.146 49.451 53.053 56.583 60.185 85.488 31.278 "/>
      <text font-family="'Helvetica Neue', Helvetica, Arial-Unicode, Arial, Sans-serif" font-weight="bold" font-size="5px" fill="#ffffff" y="114.421" x="0">
        Created by Ryan Beck
      </text>
      <text font-family="'Helvetica Neue', Helvetica, Arial-Unicode, Arial, Sans-serif" font-weight="bold" font-size="5px" fill="#ffffff" y="119.421" x="0">
        from the Noun Project
      </text>
    </symbol>
  </defs>
  <title>
    Layer 1
  </title>
  <use x="-104.169492" y="-48.717942" transform="translate(0) scale(1.4798235310439232) translate(0)" xlink:href="#svg_1" id="svg_2"/>
</svg>
