<svg xmlns="http://www.w3.org/2000/svg" xmlns:xlink="http://www.w3.org/1999/xlink" version="1.1" x="0px" y="0px" viewBox="0 0 108.121 124.27625" enable-background="new 0 0 108.121 99.421" xml:space="preserve"><circle fill="#000000" cx="410.199" cy="350.688" r="5.742"/><circle fill="#000000" cx="410.199" cy="365.103" r="6.919"/><polyline fill="#000000" points="403.279,365.103 403.279,388.627 417.118,388.627 417.118,365.103 "/><g><circle fill="#000000" cx="387.805" cy="362.006" r="4.338"/><circle fill="#000000" cx="387.805" cy="372.896" r="5.228"/><polyline fill="#000000" points="382.577,372.896 382.577,388.627 393.032,388.627 393.032,372.896  "/></g><g><circle fill="#000000" cx="432.732" cy="361.962" r="4.337"/><circle fill="#000000" cx="432.732" cy="372.854" r="5.227"/><polyline fill="#000000" points="427.505,372.854 427.505,388.627 437.959,388.627 437.959,372.854  "/></g><g><circle fill="#000000" cx="393.146" cy="352.052" r="3.174"/><polyline fill="#000000" points="390.903,354.297 409.095,372.487 413.582,367.999 395.39,349.807  "/></g><g><circle fill="#000000" cx="427.443" cy="352.052" r="3.174"/><polyline fill="#000000" points="425.198,349.808 407.008,368 411.496,372.488 429.688,354.296  "/></g><circle cx="54.521" cy="25.544" r="9.124"/><circle cx="54.521" cy="48.449" r="10.995"/><polyline points="43.526,48.449 43.526,85.829 65.516,85.829 65.516,48.449 "/><g><circle cx="18.937" cy="43.528" r="6.893"/><circle cx="18.938" cy="60.833" r="8.306"/><polyline points="10.631,60.833 10.631,85.829 27.244,85.829 27.244,60.833  "/></g><g><circle cx="90.326" cy="43.459" r="6.892"/><circle cx="90.326" cy="60.765" r="8.306"/><polyline points="82.02,60.765 82.02,85.829 98.631,85.829 98.631,60.765  "/></g><g><path d="M30.99,24.144c1.968,1.97,1.97,5.164,0,7.135c-1.97,1.968-5.161,1.968-7.129,0c-1.972-1.971-1.972-5.166-0.001-7.135   C25.829,22.175,29.021,22.175,30.99,24.144z"/><polyline points="23.861,31.279 52.767,60.184 59.897,53.051 30.99,24.144  "/></g><g><circle cx="81.921" cy="27.712" r="5.044"/><polyline points="78.354,24.146 49.451,53.053 56.583,60.185 85.488,31.278  "/></g><text x="0" y="114.421" fill="#000000" font-size="5px" font-weight="bold" font-family="'Helvetica Neue', Helvetica, Arial-Unicode, Arial, Sans-serif">Created by Ryan Beck</text><text x="0" y="119.421" fill="#000000" font-size="5px" font-weight="bold" font-family="'Helvetica Neue', Helvetica, Arial-Unicode, Arial, Sans-serif">from the Noun Project</text></svg>